<svg width="184" height="124" viewBox="0 0 184 124" fill="none" xmlns="http://www.w3.org/2000/svg">
<path d="M35.274 78.4832L39.3461 78.4419L39.4424 87.3564C39.4699 89.3237 38.2593 89.6401 37.5439 89.6401C36.8286 89.6401 35.5767 89.3512 35.5492 87.3014V86.022L32.1099 86.0633V87.4527C32.0962 90.4242 34.4761 92.8592 37.4614 92.8867C40.4329 92.9142 42.8678 90.5343 42.8954 87.5628C42.8954 87.4802 42.8954 87.4115 42.8954 87.3289L42.7578 75.2366L35.2465 75.3191L35.2878 78.4695L35.274 78.4832Z" fill="#F9F5F2"/>
<path d="M54.7124 74.8379C49.87 74.8242 45.9355 78.7311 45.9217 83.5736C45.9217 83.6424 45.9217 83.6974 45.9217 83.7662C45.8117 88.6774 49.7049 92.7357 54.6023 92.8458C59.5136 92.9558 63.5719 89.0626 63.6819 84.1651C63.6819 83.9725 63.6819 83.7662 63.6819 83.5736C63.6682 78.7449 59.7337 74.8379 54.905 74.8517C54.8362 74.8517 54.7812 74.8517 54.7124 74.8517V74.8379ZM54.8775 89.4478C51.8234 89.4065 49.3885 86.889 49.4297 83.835C49.4297 83.7937 49.4297 83.7662 49.4297 83.7249C49.2784 80.7672 51.5621 78.2359 54.5198 78.0846C57.4775 77.9332 60.0088 80.2169 60.1601 83.1746C60.1601 83.3122 60.1601 83.4635 60.1601 83.6011C60.339 86.6414 58.0278 89.269 54.9738 89.4478C54.9463 89.4478 54.905 89.4478 54.8775 89.4478Z" fill="#F9F5F2"/>
<path d="M77.164 85.8297C77.1916 87.962 75.9122 89.2139 73.6835 89.2414C71.4549 89.2689 70.1893 88.0721 70.1618 85.9673L70.038 74.9479L66.585 74.9892L66.7088 86.0085C66.75 89.888 69.639 92.5568 73.7386 92.5156C77.8244 92.4743 80.6583 89.7229 80.6033 85.8572L80.4795 74.8379L77.0265 74.8792L77.1503 85.8572L77.164 85.8297Z" fill="#F9F5F2"/>
<path d="M95.3919 85.6367C95.3369 85.5542 95.2818 85.4854 95.2406 85.4029L87.7568 74.7412L84.6064 74.7825L84.8128 92.1025L88.252 92.0612L88.1282 81.0969C88.1832 81.1795 88.2383 81.262 88.2933 81.3308L95.7908 91.9787L98.9137 91.9374L98.7073 74.6174L95.2543 74.6587L95.3919 85.6505V85.6367Z" fill="#F9F5F2"/>
<path d="M115.752 80.0241C115.587 80.3405 115.422 80.6706 115.284 80.9733C115.133 80.6706 114.954 80.3267 114.775 80.0241L111.542 74.4525L107.608 74.4938L113.578 84.4813L113.661 91.745L117.114 91.7037L117.031 84.44L122.754 74.3149L118.82 74.3562L115.766 80.0103L115.752 80.0241Z" fill="#F9F5F2"/>
<path d="M128.202 84.4396L133.98 84.3708L133.938 81.2205L128.161 81.2893L128.119 77.4236L135.232 77.341L135.19 74.1907L124.625 74.3145L124.831 91.6345L135.782 91.5107L135.741 88.3603L128.243 88.4429L128.202 84.4396Z" fill="#F9F5F2"/>
<path d="M145.371 74.0671L138.877 74.1358L139.084 91.4558L142.537 91.4146L142.468 85.444L145.508 85.4028C148.645 85.334 151.121 82.7202 151.052 79.5836C150.984 76.502 148.466 74.0396 145.384 74.0396L145.371 74.0671ZM145.096 82.28L142.413 82.3075L142.358 77.2449L145.054 77.2174C146.292 77.0523 147.434 77.9328 147.586 79.1709C147.613 79.336 147.613 79.5148 147.586 79.6799C147.737 80.9593 146.829 82.1149 145.563 82.2662C145.398 82.28 145.247 82.2937 145.082 82.2662L145.096 82.28Z" fill="#F9F5F2"/>
<path d="M15.9592 109.986C16.0555 109.986 16.138 110.027 16.2068 110.082C16.2894 110.151 16.3306 110.234 16.3306 110.344C16.3306 110.468 16.2618 110.591 16.1518 110.647C16.1518 110.647 16.0555 110.715 15.9042 110.825C15.6978 110.977 15.4915 111.156 15.3264 111.362C15.8079 111.417 16.2894 111.431 16.7571 111.431C17.1973 111.431 17.6238 111.389 18.0502 111.321C18.4079 111.266 18.7518 111.169 19.0958 111.032C19.3847 110.922 19.646 110.784 19.8937 110.619C20.1 110.468 20.2926 110.303 20.4577 110.096C20.499 110.055 20.5402 110.014 20.5953 109.986C20.6503 109.959 20.6916 109.945 20.7604 109.945C20.8567 109.945 20.953 109.986 21.008 110.055C21.0768 110.124 21.1043 110.206 21.1043 110.303C21.1043 110.371 21.0905 110.454 21.0355 110.509C20.8704 110.729 20.6641 110.935 20.444 111.1C20.1688 111.307 19.8662 111.486 19.536 111.623C19.137 111.788 18.7243 111.912 18.3116 111.995C17.8026 112.091 17.2799 112.146 16.7708 112.146C16.4407 112.146 16.1243 112.146 15.7941 112.118C15.4639 112.091 15.1475 112.063 14.8174 112.008C14.666 112.229 14.5422 112.462 14.4322 112.71C14.3084 112.985 14.2121 113.26 14.1433 113.563C14.0195 114.113 13.9507 114.677 13.9507 115.241C13.9507 115.833 13.9369 116.424 13.9369 117.043C13.9369 117.663 13.9094 118.254 13.8681 118.859C13.8269 119.451 13.7168 120.042 13.538 120.62C13.4004 121.033 13.2078 121.446 12.9739 121.803C12.7401 122.175 12.4512 122.491 12.1072 122.753C11.7496 123.028 11.3506 123.248 10.9242 123.399C10.4427 123.564 9.93365 123.647 9.42464 123.647C8.57171 123.674 7.71879 123.495 6.9484 123.138C6.16425 122.753 5.49016 122.161 4.99491 121.446C4.98115 121.418 4.95364 121.377 4.91237 121.322C4.88486 121.267 4.8711 121.212 4.8711 121.157C4.8711 121.061 4.89861 120.978 4.95364 120.909C5.00867 120.827 5.11872 120.785 5.21502 120.785C5.28381 120.785 5.35259 120.799 5.40762 120.84C5.46265 120.868 5.50392 120.909 5.54519 120.964C5.94414 121.597 6.50817 122.134 7.16851 122.491C7.85635 122.835 8.62674 123 9.41089 122.973C9.83735 122.973 10.2501 122.918 10.649 122.78C11.3506 122.56 11.9559 122.092 12.3549 121.473C12.5612 121.143 12.7401 120.772 12.8501 120.4C13.0014 119.905 13.0977 119.396 13.1253 118.887C13.1528 118.309 13.1803 117.718 13.1803 117.098C13.1803 116.479 13.194 115.847 13.2353 115.228C13.2491 114.636 13.3316 114.031 13.4692 113.453C13.538 113.178 13.6205 112.903 13.7306 112.627C13.8406 112.394 13.9507 112.16 14.0882 111.926C13.2353 111.761 12.4099 111.554 11.5845 111.307C10.7591 111.059 9.93365 110.812 9.14951 110.578C8.3516 110.344 7.59497 110.137 6.8521 109.986C6.16425 109.821 5.4764 109.739 4.7748 109.752C4.21077 109.752 3.66049 109.849 3.13773 110.027C2.66999 110.193 2.22977 110.44 1.84457 110.757C1.48689 111.059 1.198 111.444 1.0054 111.871C0.799046 112.325 0.702748 112.82 0.716505 113.315C0.716505 113.673 0.785289 114.031 0.936616 114.361C1.07419 114.677 1.26678 114.952 1.50065 115.186C1.74827 115.42 2.03717 115.599 2.35358 115.723C2.6975 115.86 3.05518 115.915 3.42662 115.915C3.79806 115.915 4.1695 115.847 4.51342 115.723C4.81607 115.613 5.09121 115.448 5.35259 115.255C5.58646 115.076 5.79281 114.884 5.97165 114.65C6.12298 114.457 6.26055 114.265 6.38436 114.044C6.50817 113.838 6.60447 113.618 6.70077 113.398C6.72829 113.329 6.76956 113.274 6.82458 113.233C6.87961 113.192 6.96215 113.164 7.03094 113.164C7.12724 113.164 7.22354 113.205 7.27856 113.274C7.34735 113.343 7.38862 113.425 7.38862 113.522C7.38862 113.535 7.38862 113.563 7.38862 113.577C7.38862 113.59 7.38862 113.604 7.37486 113.632C7.37486 113.632 7.33359 113.728 7.27856 113.879C7.19602 114.072 7.09972 114.265 6.98967 114.443C6.83834 114.691 6.67326 114.925 6.49442 115.145C6.04044 115.709 5.42138 116.149 4.73353 116.397C4.30707 116.548 3.86684 116.631 3.41286 116.617C2.95889 116.617 2.50491 116.548 2.07844 116.383C1.67949 116.232 1.30805 115.998 1.0054 115.695C0.702748 115.406 0.455123 115.049 0.276283 114.65C0.0974426 114.223 0.00114406 113.769 0.00114406 113.315C-0.0126129 112.724 0.0974426 112.132 0.345067 111.582C0.578935 111.073 0.922859 110.605 1.33557 110.248C1.77579 109.862 2.29855 109.56 2.86259 109.381C3.48165 109.175 4.12822 109.064 4.7748 109.064C5.28381 109.064 5.77906 109.092 6.28806 109.175C6.81083 109.257 7.31983 109.367 7.8426 109.505C8.36536 109.642 8.90188 109.794 9.4384 109.959C9.97492 110.124 10.5252 110.303 11.0892 110.468C11.6533 110.633 12.2035 110.798 12.7813 110.949C13.3591 111.1 13.9369 111.224 14.5422 111.307C14.6798 111.128 14.8311 110.949 14.9962 110.784C15.12 110.647 15.2576 110.523 15.4089 110.413C15.5327 110.316 15.629 110.248 15.7116 110.179C15.7941 110.11 15.8354 110.096 15.8491 110.096C15.9042 110.055 15.9592 110.041 16.028 110.027L15.9592 109.986Z" fill="#F9F5F2"/>
<path d="M17.6789 119.176C17.6514 119.341 17.6239 119.493 17.5963 119.644C17.5551 119.795 17.5276 119.919 17.4863 120.029C17.445 120.139 17.4175 120.222 17.4037 120.304C17.4037 120.345 17.3762 120.387 17.3625 120.414C17.3075 120.552 17.1836 120.634 17.0323 120.634C16.936 120.634 16.8535 120.607 16.7847 120.538C16.7159 120.483 16.6746 120.387 16.6746 120.29C16.6746 120.263 16.6746 120.235 16.6884 120.208C16.6884 120.194 16.7159 120.153 16.7434 120.098C16.7847 120.002 16.8122 119.905 16.8397 119.809C16.881 119.685 16.9223 119.479 16.9773 119.204C16.8672 119.204 16.7572 119.204 16.6471 119.204C16.5371 119.204 16.427 119.176 16.3307 119.149C16.1106 119.08 15.973 118.86 15.9868 118.64C15.9868 118.488 16.0281 118.351 16.0693 118.213C16.1244 118.021 16.2069 117.842 16.3032 117.677C16.3995 117.512 16.5095 117.36 16.6334 117.223C16.7297 117.113 16.8535 117.044 17.0048 117.03C17.1424 117.03 17.2662 117.085 17.3625 117.181C17.4588 117.291 17.5276 117.429 17.5826 117.567C17.6376 117.718 17.6789 117.883 17.6926 118.048C17.7202 118.199 17.7339 118.337 17.7339 118.488C17.844 118.488 17.9403 118.488 18.0503 118.488C18.1604 118.488 18.2567 118.488 18.3392 118.488C18.6281 118.461 18.917 118.543 19.1646 118.708C19.371 118.901 19.481 119.19 19.4535 119.479C19.4535 119.63 19.4535 119.781 19.426 119.933C19.4123 120.084 19.3847 120.249 19.371 120.414C19.3572 120.579 19.3297 120.744 19.316 120.909C19.3022 121.075 19.2885 121.226 19.2885 121.391C19.2885 121.584 19.316 121.776 19.3847 121.955C19.4398 122.093 19.5223 122.203 19.6186 122.313C19.7012 122.395 19.8112 122.45 19.9213 122.492C20.0176 122.519 20.1139 122.547 20.2102 122.547C20.4853 122.547 20.7467 122.45 20.9668 122.271C21.2144 122.079 21.4208 121.872 21.6134 121.625C21.806 121.377 21.9848 121.116 22.1499 120.841C22.3012 120.566 22.4388 120.318 22.5351 120.112C22.5626 120.057 22.6039 120.015 22.6589 119.974C22.7139 119.946 22.769 119.933 22.8377 119.933C22.934 119.933 23.0303 119.96 23.0991 120.043C23.1541 120.112 23.1954 120.194 23.1954 120.277C23.1954 120.332 23.1954 120.387 23.1542 120.442C23.0166 120.689 22.8515 120.992 22.6589 121.308C22.4663 121.625 22.2599 121.941 22.0123 122.216C21.7785 122.492 21.5033 122.739 21.2007 122.946C20.898 123.138 20.5541 123.248 20.2102 123.248C19.9901 123.248 19.7699 123.207 19.5773 123.124C19.3847 123.042 19.2059 122.918 19.0546 122.767C18.9033 122.602 18.7794 122.395 18.6969 122.175C18.6006 121.927 18.5593 121.652 18.5593 121.377C18.5593 121.061 18.5868 120.744 18.6419 120.442C18.6969 120.153 18.7244 119.85 18.7244 119.548C18.7244 119.451 18.6969 119.355 18.6419 119.286C18.5456 119.217 18.408 119.176 18.2842 119.204H17.9953C17.899 119.204 17.7889 119.217 17.6651 119.231L17.6789 119.176ZM17.0323 118.488C17.0323 118.488 17.0323 118.392 17.0323 118.309C17.0323 118.227 17.0323 118.172 17.0048 118.103C17.0048 118.048 16.9773 117.979 16.9635 117.924C16.9498 117.869 16.9223 117.855 16.9085 117.855C16.8947 117.855 16.8672 117.883 16.8397 117.924C16.8122 117.966 16.7847 118.034 16.7572 118.089C16.7297 118.158 16.7021 118.227 16.6746 118.296C16.6471 118.378 16.6334 118.433 16.6196 118.488H17.0323Z" fill="#F9F5F2"/>
<path d="M29.7846 120.277C29.7846 120.277 29.7158 120.428 29.6333 120.593C29.5508 120.758 29.4545 120.937 29.3444 121.144C29.2343 121.35 29.083 121.57 28.9317 121.79C28.7666 122.01 28.5878 122.23 28.3952 122.409C28.2026 122.588 27.9825 122.753 27.7486 122.877C27.5285 123.001 27.2809 123.07 27.0195 123.07C26.6756 123.07 26.3454 122.96 26.0978 122.739C25.8364 122.506 25.6575 122.203 25.5475 121.873C25.3549 122.203 25.1073 122.506 24.7909 122.726C24.5432 122.918 24.2268 123.042 23.9104 123.056C23.6903 123.056 23.4839 123.015 23.2776 122.932C23.0987 122.85 22.9337 122.726 22.7961 122.574C22.6585 122.423 22.5485 122.23 22.4797 122.038C22.3971 121.818 22.3696 121.598 22.3696 121.364C22.3696 120.924 22.4384 120.483 22.6035 120.071C22.7548 119.727 22.9612 119.397 23.2226 119.135C23.4564 118.888 23.7453 118.695 24.0617 118.557C24.3369 118.434 24.6533 118.365 24.9559 118.365C25.1348 118.365 25.3136 118.392 25.4925 118.434C25.6438 118.475 25.7813 118.53 25.9189 118.599C26.0152 118.654 26.0978 118.709 26.1803 118.764C26.2491 118.819 26.2766 118.846 26.2904 118.846C26.3591 118.915 26.3867 118.998 26.4004 119.094C26.4004 119.19 26.3729 119.273 26.3041 119.341C26.2353 119.41 26.1528 119.452 26.0565 119.452C25.9602 119.452 25.8776 119.424 25.8089 119.355C25.8089 119.355 25.7676 119.314 25.7263 119.286C25.6713 119.245 25.6025 119.218 25.5475 119.176C25.4649 119.135 25.3686 119.108 25.2723 119.08C25.1623 119.053 25.0385 119.039 24.9147 119.039C24.7083 119.039 24.4882 119.094 24.2956 119.176C24.0755 119.273 23.8691 119.41 23.7041 119.589C23.5115 119.795 23.3601 120.029 23.2501 120.291C23.1263 120.607 23.0712 120.951 23.085 121.281C23.085 121.405 23.0987 121.529 23.1263 121.639C23.1538 121.763 23.195 121.873 23.2638 121.969C23.3326 122.065 23.4152 122.148 23.5115 122.203C23.6353 122.272 23.7728 122.299 23.9104 122.285C24.048 122.285 24.1855 122.244 24.2956 122.175C24.4607 122.079 24.5983 121.969 24.7083 121.818C24.8596 121.639 24.9834 121.446 25.066 121.226C25.176 120.951 25.2586 120.676 25.2861 120.373C25.2861 120.291 25.3411 120.208 25.4099 120.153C25.4787 120.098 25.5612 120.057 25.6575 120.057C25.7401 120.057 25.8226 120.098 25.8914 120.153C25.9602 120.222 25.9877 120.304 26.0015 120.387C26.0015 120.511 26.029 120.676 26.0427 120.896C26.0702 121.116 26.1115 121.336 26.1803 121.543C26.2491 121.749 26.3454 121.928 26.483 122.093C26.6205 122.244 26.8269 122.327 27.0332 122.327C27.1846 122.327 27.3496 122.285 27.4735 122.203C27.6248 122.107 27.7761 121.997 27.8999 121.873C28.0512 121.735 28.1751 121.57 28.2989 121.405C28.4227 121.24 28.5327 121.061 28.6428 120.882C28.7391 120.703 28.8354 120.538 28.9179 120.373C29.0005 120.208 29.0693 120.071 29.1243 119.947C29.1793 119.809 29.3031 119.727 29.4545 119.727C29.5508 119.727 29.647 119.768 29.7158 119.837C29.7846 119.906 29.8121 119.988 29.8121 120.084C29.8121 120.126 29.8121 120.167 29.7846 120.208V120.277Z" fill="#F9F5F2"/>
<path d="M32.7704 120.126C33.1005 121.57 33.5408 122.286 34.1323 122.286C34.3662 122.286 34.6 122.189 34.7789 122.024C34.999 121.845 35.1916 121.639 35.3429 121.405C35.5218 121.158 35.6731 120.91 35.8106 120.635C35.9482 120.36 36.0583 120.126 36.1408 119.919C36.1821 119.782 36.3197 119.686 36.471 119.686C36.5673 119.686 36.6636 119.727 36.7186 119.796C36.7874 119.864 36.8287 119.947 36.8287 120.043C36.8287 120.085 36.8287 120.14 36.8012 120.181C36.7599 120.291 36.6911 120.429 36.6086 120.607C36.5123 120.8 36.416 120.993 36.3059 121.185C36.1821 121.391 36.0583 121.598 35.9069 121.818C35.7694 122.024 35.6043 122.217 35.4117 122.396C35.2466 122.561 35.054 122.698 34.8339 122.822C34.6413 122.932 34.4212 123.001 34.1873 123.001C33.7884 123.001 33.3894 122.863 33.1005 122.575C32.7291 122.162 32.454 121.68 32.3026 121.144C32.0963 121.667 31.7936 122.134 31.4084 122.547C31.147 122.822 30.7894 122.974 30.4179 122.987C30.2391 122.987 30.0465 122.96 29.8677 122.905C29.6888 122.85 29.5375 122.753 29.3999 122.616C29.2623 122.465 29.1385 122.286 29.0698 122.093C28.9735 121.845 28.9322 121.57 28.9459 121.295C28.9322 120.511 29.2073 119.754 29.7301 119.163C29.9502 118.915 30.2116 118.695 30.5142 118.544C30.7756 118.406 31.0783 118.324 31.3809 118.31C31.4772 118.31 31.5598 118.337 31.6285 118.406C31.6973 118.475 31.7386 118.558 31.7386 118.654C31.7386 118.736 31.7111 118.819 31.6561 118.888C31.601 118.957 31.5185 118.998 31.4359 119.012C31.2296 119.039 31.0232 119.108 30.8444 119.19C30.6243 119.287 30.4317 119.438 30.2666 119.603C30.074 119.796 29.9364 120.03 29.8264 120.291C29.7026 120.607 29.6475 120.938 29.6613 121.281C29.6613 121.543 29.7163 121.79 29.8677 122.011C30.0052 122.189 30.2116 122.286 30.4317 122.272C30.5417 122.272 30.6518 122.244 30.7481 122.189C30.8857 122.107 31.0095 121.997 31.1058 121.873C31.2571 121.667 31.4084 121.433 31.5185 121.199C31.7111 120.827 31.8762 120.442 32.0137 120.057C31.9037 119.507 31.7936 118.874 31.6973 118.159C31.601 117.361 31.546 116.549 31.5322 115.751C31.5322 115.366 31.5322 114.953 31.5598 114.541C31.5735 114.128 31.6148 113.701 31.6698 113.302C31.7248 112.917 31.7936 112.532 31.8762 112.147C31.9587 111.817 32.0688 111.5 32.2063 111.184C32.3164 110.936 32.4677 110.716 32.6741 110.524C32.8392 110.372 33.0593 110.276 33.2931 110.276C33.4857 110.276 33.6646 110.331 33.8159 110.441C33.9672 110.565 34.091 110.73 34.1736 110.909C34.2699 111.143 34.3524 111.376 34.3799 111.624C34.4212 111.927 34.4487 112.243 34.4487 112.546C34.4487 113.275 34.4074 114.004 34.2836 114.733C34.1598 115.462 34.0222 116.164 33.8434 116.824C33.6646 117.485 33.472 118.104 33.2794 118.681C33.0868 119.259 32.8942 119.727 32.7291 120.14L32.7704 120.126ZM33.7884 112.56C33.7884 112.408 33.7884 112.229 33.7746 112.051C33.7746 111.885 33.7334 111.707 33.7058 111.542C33.6783 111.404 33.6233 111.266 33.5683 111.143C33.527 111.046 33.4445 110.991 33.3482 110.991C33.1968 110.991 33.0455 111.129 32.9217 111.404C32.7704 111.748 32.6466 112.119 32.5778 112.491C32.4815 113 32.3989 113.495 32.3577 114.018C32.3026 114.582 32.2889 115.16 32.2889 115.724C32.2889 116.274 32.3164 116.824 32.3714 117.374C32.4264 117.925 32.4815 118.42 32.5365 118.846C32.7153 118.365 32.8804 117.856 33.0317 117.347C33.1831 116.838 33.3206 116.315 33.4445 115.779C33.5545 115.242 33.6508 114.706 33.7196 114.169C33.7884 113.633 33.8159 113.082 33.8021 112.546L33.7884 112.56Z" fill="#F9F5F2"/>
<path d="M37.6263 115.435C37.6263 115.902 37.2548 116.287 36.7871 116.301C36.3194 116.301 35.9342 115.93 35.9204 115.462C35.9204 115.338 35.9342 115.228 35.9892 115.118C36.0717 114.912 36.2368 114.747 36.4432 114.664C36.7596 114.527 37.131 114.595 37.3786 114.829C37.4612 114.912 37.5162 114.994 37.5575 115.104C37.5988 115.214 37.6263 115.324 37.6263 115.435ZM36.168 120.951C36.168 120.057 36.2093 119.149 36.3056 118.255C36.3056 118.172 36.3606 118.09 36.4157 118.021C36.4844 117.952 36.5807 117.911 36.677 117.925C36.7733 117.925 36.8559 117.966 36.9109 118.035C36.9797 118.103 37.0072 118.186 37.0072 118.282C37.0072 118.323 37.0072 118.434 36.9935 118.612C36.9797 118.791 36.9659 119.025 36.9384 119.286C36.9109 119.548 36.9109 119.823 36.8972 120.112C36.8834 120.401 36.8834 120.676 36.8834 120.91C36.8834 121.185 36.9109 121.446 36.9935 121.708C37.0485 121.887 37.131 122.038 37.2548 122.175C37.3374 122.272 37.4612 122.354 37.585 122.396C37.6951 122.423 37.8051 122.451 37.9152 122.451C38.1078 122.451 38.3004 122.382 38.4517 122.258C38.6718 122.107 38.8506 121.928 39.0295 121.721C39.2496 121.46 39.4422 121.185 39.621 120.91C39.8136 120.593 40.0062 120.236 40.1988 119.851C40.2263 119.795 40.2676 119.74 40.3226 119.699C40.3777 119.658 40.4464 119.644 40.5152 119.644C40.6115 119.644 40.7078 119.685 40.7629 119.754C40.8316 119.823 40.8592 119.906 40.8592 120.002C40.8592 120.057 40.8591 120.112 40.8179 120.167C40.7491 120.318 40.6528 120.483 40.5427 120.69C40.4327 120.896 40.3089 121.116 40.1713 121.336C40.0337 121.556 39.8687 121.776 39.7036 121.997C39.5385 122.217 39.3596 122.409 39.1533 122.588C38.9745 122.753 38.7681 122.905 38.548 123.015C38.3554 123.125 38.1215 123.18 37.9014 123.18C37.64 123.18 37.3924 123.125 37.1585 123.015C36.9384 122.905 36.7596 122.739 36.6083 122.547C36.4569 122.341 36.3331 122.093 36.2781 121.845C36.1955 121.556 36.168 121.254 36.168 120.965V120.951ZM37.1035 115.448C37.1035 115.366 37.0622 115.283 36.9935 115.214C36.9384 115.146 36.8559 115.118 36.7596 115.118C36.677 115.118 36.5945 115.159 36.5395 115.214C36.4844 115.269 36.4432 115.366 36.4432 115.448C36.4432 115.531 36.4844 115.613 36.5395 115.668C36.5945 115.723 36.677 115.765 36.7733 115.765C36.8559 115.765 36.9384 115.723 36.9935 115.668C37.0622 115.613 37.0898 115.531 37.0898 115.448H37.1035Z" fill="#F9F5F2"/>
<path d="M47.7105 113.302C47.7105 113.398 47.683 113.481 47.6142 113.536C47.5454 113.591 47.4491 113.632 47.3666 113.632L42.6067 113.687V113.783C42.6067 114.196 42.5929 114.595 42.5379 115.008C42.4828 115.434 42.4141 115.874 42.3178 116.301C42.2215 116.727 42.1252 117.154 42.0014 117.553C41.8775 117.952 41.7675 118.337 41.6437 118.681C41.5199 119.025 41.396 119.327 41.2722 119.575C41.1759 119.781 41.0659 119.974 40.9421 120.153C41.0246 120.428 41.1209 120.689 41.2447 120.951C41.3548 121.184 41.4786 121.391 41.6299 121.597C41.7537 121.762 41.9188 121.914 42.0977 122.024C42.249 122.12 42.4416 122.175 42.6204 122.175C42.868 122.175 43.1019 122.065 43.267 121.886C43.4871 121.693 43.6935 121.46 43.8585 121.226C44.0374 120.978 44.2025 120.717 44.34 120.455C44.4501 120.249 44.5464 120.043 44.6289 119.822C44.6977 119.644 44.9041 119.547 45.0829 119.616C45.1379 119.63 45.1792 119.671 45.2205 119.699C45.2893 119.767 45.3168 119.85 45.3168 119.946C45.3168 119.988 45.3168 120.043 45.2893 120.084C45.2755 120.125 45.2342 120.221 45.1517 120.386C45.0691 120.552 44.9866 120.73 44.8766 120.937C44.7665 121.143 44.6289 121.363 44.4776 121.597C44.3263 121.817 44.1612 122.037 43.9686 122.23C43.7898 122.409 43.5834 122.574 43.3633 122.711C43.1569 122.835 42.9093 122.904 42.6754 122.904C42.249 122.904 41.8363 122.766 41.5061 122.505C41.1209 122.189 40.8183 121.79 40.6119 121.336C40.3505 120.758 40.1579 120.166 40.0479 119.534C39.9103 118.777 39.8415 118.02 39.8278 117.25C39.8278 117.044 39.8278 116.796 39.8278 116.521C39.8278 116.246 39.8278 115.943 39.8553 115.64C39.8828 115.338 39.8965 115.008 39.9241 114.677C39.9516 114.347 40.0066 114.031 40.0616 113.714L36.6912 113.756C36.5949 113.756 36.5123 113.728 36.4436 113.673C36.3748 113.618 36.3335 113.522 36.3335 113.439C36.3335 113.343 36.361 113.26 36.4298 113.192C36.4986 113.137 36.5949 113.109 36.6774 113.109L40.1992 113.068C40.2542 112.861 40.323 112.641 40.4055 112.449C40.4743 112.27 40.5706 112.105 40.6944 111.953C40.7907 111.83 40.9146 111.706 41.0521 111.623C41.1897 111.541 41.341 111.5 41.4923 111.5C41.6437 111.5 41.7812 111.541 41.9051 111.61C42.0289 111.692 42.1252 111.802 42.2077 111.926C42.2902 112.077 42.359 112.242 42.4003 112.407C42.4553 112.614 42.4966 112.82 42.5104 113.027L47.2978 112.972C47.3941 112.972 47.4766 112.999 47.5454 113.054C47.6142 113.109 47.6555 113.205 47.6555 113.288L47.7105 113.302ZM40.7082 119.217C40.9008 118.777 41.0659 118.337 41.2034 117.869C41.3548 117.387 41.4786 116.906 41.5749 116.411C41.6712 115.929 41.7537 115.462 41.8088 114.966C41.8638 114.54 41.8913 114.1 41.8775 113.673H40.777C40.6807 114.155 40.6119 114.636 40.5844 115.131C40.5294 115.709 40.5156 116.397 40.5294 117.222C40.5294 117.676 40.5569 118.062 40.5844 118.364C40.6119 118.653 40.6532 118.928 40.7082 119.203V119.217ZM41.5061 112.187C41.5061 112.187 41.3685 112.256 41.2585 112.366C41.1209 112.573 41.0109 112.793 40.9421 113.027H41.8363C41.8088 112.806 41.7675 112.6 41.6987 112.394C41.6437 112.242 41.5749 112.174 41.4923 112.174L41.5061 112.187Z" fill="#F9F5F2"/>
<path d="M46.1419 115.338C46.1419 115.806 45.7705 116.191 45.3027 116.205C44.835 116.218 44.4498 115.833 44.436 115.366C44.436 115.255 44.4498 115.132 44.5048 115.035C44.5874 114.829 44.7524 114.664 44.9588 114.581C45.3853 114.389 45.8943 114.581 46.0869 115.022C46.1281 115.132 46.1557 115.242 46.1557 115.366L46.1419 115.338ZM44.6837 120.855C44.6837 119.96 44.7249 119.052 44.8212 118.158C44.8212 118.076 44.8763 117.993 44.9313 117.924C45.0001 117.856 45.0964 117.814 45.1927 117.828C45.289 117.828 45.3715 117.869 45.4265 117.938C45.4953 118.007 45.5228 118.089 45.5228 118.186C45.5228 118.227 45.5228 118.337 45.5091 118.516C45.4953 118.695 45.4816 118.929 45.4541 119.19C45.4265 119.451 45.4265 119.726 45.4128 120.015C45.399 120.304 45.399 120.579 45.399 120.813C45.399 121.088 45.4265 121.35 45.5091 121.611C45.5641 121.79 45.6466 121.941 45.7705 122.079C45.853 122.175 45.9768 122.258 46.1006 122.299C46.2107 122.327 46.3207 122.354 46.4308 122.354C46.6234 122.354 46.816 122.285 46.9673 122.161C47.1874 122.01 47.3663 121.831 47.5451 121.625C47.7652 121.364 47.9578 121.088 48.1366 120.813C48.343 120.469 48.5356 120.112 48.7144 119.754C48.742 119.699 48.7832 119.644 48.8383 119.603C48.8933 119.561 48.9621 119.548 49.0309 119.548C49.1272 119.548 49.2234 119.589 49.2785 119.658C49.3473 119.726 49.3748 119.809 49.3748 119.905C49.3748 119.96 49.3748 120.015 49.3335 120.07C49.2647 120.222 49.1684 120.387 49.0584 120.593C48.9483 120.799 48.8245 121.02 48.6869 121.24C48.5494 121.46 48.3843 121.68 48.2192 121.9C48.0541 122.12 47.8753 122.313 47.6689 122.492C47.4901 122.657 47.2837 122.808 47.0636 122.918C46.8573 123.028 46.6371 123.083 46.417 123.083C46.1557 123.083 45.908 123.028 45.6742 122.918C45.4541 122.808 45.2752 122.643 45.1239 122.45C44.9726 122.244 44.8487 121.996 44.7937 121.749C44.7112 121.46 44.6837 121.157 44.6837 120.868V120.855ZM45.6191 115.352C45.6191 115.269 45.5779 115.187 45.5091 115.118C45.454 115.049 45.3715 115.022 45.2752 115.022C45.1927 115.022 45.1101 115.063 45.0551 115.118C45.0001 115.173 44.9588 115.269 44.9588 115.352C44.9588 115.434 44.9863 115.517 45.0551 115.572C45.1101 115.627 45.1927 115.668 45.289 115.668C45.3715 115.668 45.454 115.627 45.5091 115.572C45.5779 115.517 45.6054 115.434 45.6054 115.352H45.6191Z" fill="#F9F5F2"/>
<path d="M53.048 121.598C52.9104 121.598 52.7729 121.598 52.6353 121.57C52.539 121.763 52.4289 121.928 52.3051 122.093C52.1813 122.258 52.03 122.396 51.8512 122.519C51.6723 122.643 51.4797 122.74 51.2734 122.808C51.0533 122.877 50.8194 122.918 50.5855 122.918C50.3104 122.918 50.0352 122.877 49.7739 122.767C49.5262 122.671 49.3199 122.519 49.1273 122.341C48.9347 122.148 48.7971 121.928 48.7008 121.68C48.4669 121.061 48.4807 120.387 48.7421 119.768C48.8659 119.493 49.031 119.245 49.2373 119.025C49.4024 118.846 49.5813 118.695 49.8014 118.571C49.9252 118.489 50.0765 118.447 50.2141 118.42C50.3654 118.406 50.5167 118.516 50.5305 118.668C50.5305 118.681 50.5305 118.709 50.5305 118.723C50.5305 118.819 50.503 118.901 50.4342 118.97C50.3516 119.025 50.2691 119.08 50.1866 119.122C50.0765 119.177 49.9665 119.259 49.8702 119.342C49.7463 119.438 49.65 119.562 49.5537 119.686C49.4574 119.837 49.3749 120.002 49.3199 120.181C49.2511 120.387 49.2236 120.594 49.2373 120.814C49.2373 121.006 49.2786 121.199 49.3336 121.391C49.3887 121.557 49.485 121.722 49.6088 121.845C49.7326 121.969 49.8702 122.079 50.0352 122.148C50.2141 122.217 50.3929 122.258 50.5855 122.244C50.9019 122.244 51.2046 122.162 51.466 121.983C51.6998 121.818 51.8787 121.598 52.0025 121.336C51.631 121.144 51.3146 120.869 51.0808 120.525C50.8331 120.167 50.7093 119.754 50.7093 119.328C50.6956 119.011 50.7781 118.709 50.957 118.447C51.1083 118.227 51.3697 118.104 51.631 118.104C51.7961 118.104 51.9612 118.145 52.1125 118.214C52.2776 118.31 52.4152 118.434 52.5115 118.599C52.6491 118.805 52.7316 119.039 52.8004 119.273C52.8829 119.589 52.9242 119.919 52.9104 120.263C52.9104 120.47 52.8829 120.69 52.8417 120.896C52.8829 120.896 52.9104 120.896 52.9517 120.896H53.0755C53.2681 120.896 53.4607 120.869 53.6533 120.814C53.8184 120.759 53.9697 120.69 54.1073 120.58C54.2449 120.47 54.3687 120.346 54.4787 120.195C54.5888 120.016 54.6988 119.837 54.7814 119.644C54.8089 119.603 54.8502 119.562 54.9052 119.534C54.9602 119.507 55.029 119.479 55.0978 119.479C55.2904 119.479 55.4417 119.644 55.4417 119.837C55.4417 119.892 55.4417 119.947 55.4004 120.002C55.3729 120.057 55.3454 120.112 55.3317 120.167C55.2216 120.36 55.0978 120.538 54.974 120.717C54.8364 120.896 54.6713 121.047 54.4787 121.171C54.2861 121.309 54.066 121.405 53.8321 121.488C53.5708 121.57 53.3094 121.598 53.048 121.598ZM51.4247 119.245C51.4247 119.369 51.4384 119.493 51.4797 119.617C51.5072 119.754 51.5623 119.878 51.631 120.002C51.6998 120.126 51.7824 120.25 51.8787 120.36C51.975 120.47 52.0988 120.58 52.2226 120.649C52.2363 120.525 52.2501 120.387 52.2501 120.263C52.2501 120.085 52.2363 119.919 52.2088 119.741C52.1813 119.576 52.14 119.41 52.0988 119.259C52.0575 119.135 52.0025 119.011 51.9199 118.901C51.8649 118.819 51.7686 118.764 51.6723 118.764C51.6173 118.764 51.5623 118.805 51.521 118.846C51.4384 118.956 51.4109 119.08 51.4247 119.218V119.245Z" fill="#F9F5F2"/>
<path d="M56.8862 121.735C56.9825 121.529 57.0926 121.295 57.2302 121.047C57.3677 120.8 57.4915 120.552 57.6429 120.291C57.7942 120.029 57.9455 119.782 58.1106 119.534C58.2757 119.286 58.4408 119.039 58.6196 118.819C58.7709 118.626 58.9498 118.461 59.1699 118.337C59.335 118.241 59.5 118.2 59.6926 118.186C59.9815 118.158 60.2567 118.296 60.4218 118.53C60.5868 118.791 60.6694 119.094 60.6694 119.41C60.6694 119.493 60.6694 119.589 60.6694 119.699C60.6694 119.823 60.6556 119.947 60.6419 120.071C60.6281 120.194 60.6281 120.332 60.6144 120.469C60.6006 120.607 60.6144 120.731 60.6144 120.855C60.6144 120.992 60.6144 121.144 60.6419 121.281C60.6556 121.405 60.6831 121.529 60.7382 121.639C60.7794 121.735 60.8482 121.818 60.9308 121.886C61.0271 121.941 61.1371 121.969 61.2472 121.969C61.5086 121.969 61.7424 121.859 61.935 121.68C62.1689 121.488 62.3752 121.267 62.5541 121.02C62.7329 120.772 62.898 120.511 63.0356 120.236C63.1732 119.974 63.2832 119.754 63.3382 119.589C63.3933 119.451 63.5171 119.369 63.6684 119.369C63.7647 119.369 63.861 119.41 63.9298 119.479C63.9986 119.548 64.0261 119.63 64.0261 119.727C64.0261 119.768 64.0261 119.823 63.9986 119.864C63.9711 119.919 63.9298 120.016 63.8472 120.181C63.7647 120.346 63.6822 120.525 63.5583 120.717C63.4345 120.91 63.297 121.144 63.1319 121.364C62.9806 121.584 62.8017 121.804 62.5954 121.997C62.4028 122.189 62.1964 122.34 61.9625 122.478C61.7424 122.602 61.4948 122.671 61.2472 122.671C61.0133 122.671 60.7657 122.629 60.5593 122.519C60.3805 122.409 60.2429 122.272 60.1466 122.093C60.0366 121.914 59.9678 121.708 59.9403 121.515C59.899 121.295 59.8852 121.075 59.8852 120.868C59.8852 120.772 59.8852 120.662 59.8852 120.552C59.8852 120.442 59.899 120.304 59.9128 120.181C59.9265 120.057 59.9403 119.919 59.9403 119.782C59.9403 119.644 59.9403 119.52 59.9403 119.41C59.9403 119.273 59.9128 119.121 59.844 118.998C59.8027 118.942 59.7477 118.901 59.6789 118.887C59.5413 118.901 59.4313 118.97 59.335 119.066C59.1836 119.204 59.0598 119.355 58.936 119.52C58.7984 119.713 58.6609 119.919 58.5095 120.153C58.3582 120.387 58.2344 120.621 58.0968 120.855C57.9593 121.089 57.8492 121.309 57.7529 121.515C57.6566 121.721 57.5603 121.9 57.5053 122.038C57.4228 122.244 57.2989 122.423 57.1339 122.574C57.0238 122.657 56.8862 122.712 56.7487 122.712C56.5836 122.712 56.4323 122.657 56.3084 122.547C56.1984 122.423 56.1296 122.258 56.1434 122.079C56.1434 122.038 56.1434 121.955 56.1571 121.818C56.1709 121.68 56.1846 121.529 56.1984 121.364C56.2121 121.199 56.2259 120.992 56.2534 120.786C56.2809 120.58 56.2809 120.373 56.3084 120.167C56.336 119.96 56.336 119.768 56.3497 119.603C56.3635 119.438 56.3635 119.286 56.3635 119.163C56.3635 119.011 56.3635 118.86 56.336 118.709C56.336 118.612 56.3084 118.53 56.2534 118.447C56.1984 118.461 56.1021 118.585 55.9645 118.805C55.7582 119.176 55.5656 119.548 55.428 119.947C55.4005 120.016 55.3455 120.071 55.2904 120.112C55.2354 120.153 55.1666 120.167 55.0978 120.167C55.0015 120.167 54.9052 120.139 54.8502 120.057C54.7814 119.988 54.7539 119.905 54.7539 119.809C54.7539 119.768 54.7539 119.713 54.7814 119.672C54.974 119.149 55.2354 118.64 55.5518 118.186C55.7031 117.924 55.9783 117.746 56.2809 117.704C56.4047 117.704 56.5423 117.732 56.6524 117.814C56.7624 117.883 56.845 117.979 56.9 118.103C56.9688 118.227 57.01 118.365 57.0376 118.488C57.0651 118.64 57.0788 118.777 57.0788 118.929C57.0788 119.039 57.0788 119.218 57.0651 119.451C57.0513 119.685 57.0376 119.947 57.01 120.222C56.9825 120.497 56.9688 120.772 56.955 121.034C56.9413 121.295 56.9137 121.529 56.9 121.708L56.8862 121.735Z" fill="#F9F5F2"/>
<path d="M70.5883 119.809C70.5883 119.809 70.5058 119.961 70.437 120.126C70.3682 120.291 70.2582 120.47 70.1481 120.676C70.0381 120.882 69.8867 121.102 69.7354 121.322C69.5703 121.543 69.3915 121.763 69.1989 121.942C69.0063 122.12 68.7862 122.285 68.5523 122.409C68.3322 122.533 68.0846 122.602 67.8232 122.602C67.4793 122.602 67.1491 122.492 66.9015 122.272C66.6401 122.038 66.4612 121.735 66.3512 121.405C66.1586 121.735 65.911 122.038 65.5946 122.258C65.3469 122.451 65.0305 122.574 64.7141 122.588C64.494 122.588 64.2877 122.547 64.0813 122.464C63.9025 122.382 63.7374 122.258 63.5998 122.107C63.4622 121.955 63.3522 121.763 63.2834 121.57C63.2009 121.35 63.1733 121.13 63.1733 120.896C63.1733 120.456 63.2421 120.016 63.4072 119.603C63.5585 119.259 63.7649 118.929 64.0263 118.667C64.2601 118.42 64.549 118.227 64.8654 118.09C65.1543 117.966 65.457 117.897 65.7596 117.897C65.9385 117.897 66.1173 117.924 66.2962 117.966C66.4475 118.007 66.5851 118.062 66.7226 118.131C66.8189 118.186 66.9015 118.241 66.984 118.296C67.0528 118.351 67.0803 118.378 67.0941 118.378C67.1629 118.447 67.1904 118.53 67.2041 118.626C67.2041 118.722 67.1766 118.805 67.1078 118.874C67.039 118.942 66.9565 118.984 66.8602 118.984C66.7639 118.984 66.6814 118.956 66.6126 118.887C66.6126 118.887 66.5713 118.846 66.53 118.819C66.475 118.777 66.4062 118.75 66.3512 118.709C66.2687 118.667 66.1724 118.64 66.0761 118.612C65.966 118.585 65.8422 118.571 65.7184 118.571C65.512 118.571 65.2919 118.626 65.0993 118.709C64.8792 118.805 64.6728 118.942 64.5078 119.121C64.3152 119.328 64.1638 119.562 64.0538 119.823C63.93 120.139 63.8749 120.483 63.8887 120.813C63.8887 120.937 63.9025 121.061 63.93 121.171C63.9575 121.295 63.9988 121.405 64.0675 121.501C64.1363 121.598 64.2189 121.68 64.3152 121.735C64.439 121.804 64.5766 121.831 64.7141 121.818C64.8517 121.818 64.9893 121.776 65.0993 121.708C65.2644 121.611 65.402 121.501 65.512 121.35C65.6633 121.171 65.7734 120.979 65.8697 120.758C65.9798 120.483 66.0623 120.208 66.0898 119.905C66.0898 119.823 66.1448 119.74 66.2136 119.685C66.2824 119.63 66.3649 119.589 66.4612 119.589C66.5438 119.589 66.6401 119.63 66.6951 119.685C66.7639 119.754 66.7914 119.837 66.8052 119.919C66.8052 120.043 66.8327 120.208 66.8464 120.428C66.874 120.648 66.9152 120.868 66.984 121.075C67.0528 121.281 67.1491 121.46 67.2867 121.625C67.4242 121.776 67.6306 121.859 67.8369 121.859C67.9883 121.859 68.1396 121.818 68.2772 121.735C68.4285 121.639 68.5798 121.529 68.7036 121.405C68.855 121.267 68.9788 121.102 69.1026 120.937C69.2264 120.772 69.3365 120.593 69.4465 120.414C69.5428 120.236 69.6391 120.071 69.7216 119.905C69.8042 119.74 69.873 119.603 69.928 119.479C69.983 119.341 70.1068 119.259 70.2582 119.259C70.3545 119.259 70.4508 119.3 70.5195 119.369C70.5883 119.438 70.6158 119.52 70.6158 119.617C70.6158 119.658 70.6158 119.699 70.5883 119.74V119.809Z" fill="#F9F5F2"/>
<path d="M75.2789 119.768C75.2101 119.919 75.1276 120.084 75.0313 120.277C74.935 120.47 74.8112 120.676 74.6873 120.896C74.5498 121.116 74.4122 121.322 74.2471 121.529C74.0958 121.735 73.9169 121.928 73.7244 122.107C73.5455 122.272 73.3392 122.409 73.119 122.519C72.8989 122.629 72.6651 122.684 72.4312 122.684C72.0735 122.684 71.7296 122.574 71.4545 122.354C71.1656 122.107 70.9317 121.79 70.7529 121.446C70.5465 121.034 70.3952 120.607 70.2851 120.167C70.1613 119.685 70.065 119.204 69.9962 118.709C69.9274 118.213 69.8862 117.732 69.8587 117.264C69.8311 116.796 69.8174 116.384 69.8174 116.012C69.8174 115.49 69.8174 114.939 69.8449 114.375C69.8724 113.811 69.9274 113.261 69.9962 112.724C70.065 112.188 70.1475 111.679 70.2714 111.197C70.3677 110.757 70.5052 110.331 70.6703 109.932C70.7941 109.615 70.9867 109.313 71.2068 109.065C71.3857 108.859 71.6333 108.749 71.9084 108.735C72.101 108.735 72.2936 108.776 72.4725 108.872C72.6513 108.982 72.8026 109.148 72.8989 109.34C73.0365 109.615 73.119 109.89 73.1741 110.193C73.2429 110.62 73.2841 111.046 73.2841 111.472C73.2841 112.119 73.2291 112.779 73.1053 113.412C72.9815 114.1 72.8026 114.774 72.5963 115.434C72.3762 116.122 72.1148 116.796 71.8259 117.471C71.5232 118.145 71.2068 118.805 70.8629 119.452C70.973 120.098 71.1931 120.731 71.5095 121.322C71.6746 121.708 72.046 121.969 72.4725 121.997C72.7476 121.997 72.9952 121.873 73.1878 121.694C73.4217 121.488 73.6418 121.254 73.8207 120.992C74.0132 120.731 74.1783 120.456 74.3297 120.167C74.4672 119.892 74.591 119.658 74.6598 119.493C74.6873 119.438 74.7286 119.383 74.7836 119.341C74.8387 119.3 74.9074 119.286 74.9762 119.286C75.0725 119.286 75.1688 119.328 75.2376 119.396C75.3064 119.465 75.3339 119.548 75.3339 119.644C75.3339 119.699 75.3202 119.754 75.2926 119.795L75.2789 119.768ZM70.5327 116.054C70.5327 116.453 70.5465 116.838 70.574 117.209C70.6015 117.581 70.629 117.938 70.6566 118.268C70.9179 117.759 71.1518 117.223 71.3857 116.645C71.6195 116.067 71.8259 115.49 71.991 114.898C72.1561 114.32 72.2936 113.742 72.4037 113.151C72.5 112.601 72.555 112.05 72.555 111.486C72.5688 110.95 72.5137 110.413 72.3624 109.904C72.2386 109.588 72.0735 109.436 71.8809 109.436C71.7434 109.436 71.6195 109.533 71.5095 109.712C71.3719 109.945 71.2481 110.193 71.1793 110.454C71.0693 110.826 70.973 111.197 70.9042 111.569C70.8216 111.995 70.7529 112.449 70.6978 112.944C70.6428 113.426 70.6015 113.949 70.574 114.472C70.5465 114.994 70.5327 115.531 70.5327 116.054Z" fill="#F9F5F2"/>
<path d="M94.1953 118.667C93.8651 119.19 93.4799 119.672 93.026 120.098C92.5032 120.58 91.9392 121.02 91.3339 121.378C90.6735 121.763 89.9719 122.079 89.2428 122.299C88.4862 122.533 87.6883 122.657 86.9041 122.671C86.2713 122.671 85.6385 122.629 85.0057 122.519C84.3866 122.423 83.7813 122.244 83.1897 122.024C82.612 121.804 82.0754 121.515 81.5664 121.171C81.0712 120.827 80.631 120.401 80.2595 119.933C79.8743 119.438 79.5717 118.888 79.3791 118.296C79.159 117.636 79.0352 116.948 79.0352 116.26C79.0352 115.558 79.1177 114.843 79.3378 114.169C79.5442 113.522 79.8468 112.903 80.2182 112.326C80.6034 111.762 81.0574 111.239 81.5802 110.799C82.103 110.345 82.6945 109.946 83.3136 109.629C83.9464 109.299 84.6205 109.051 85.3083 108.873C86.0099 108.694 86.7253 108.597 87.4544 108.597C88.2248 108.597 88.9952 108.666 89.738 108.859C90.3984 109.024 91.0312 109.285 91.609 109.643C92.118 109.959 92.5582 110.372 92.8884 110.881C93.2048 111.363 93.3699 111.927 93.3699 112.491C93.3699 113.041 93.2461 113.577 92.9984 114.073C92.7371 114.582 92.3931 115.022 91.9529 115.393C91.4852 115.779 90.9624 116.095 90.3984 116.301C89.7931 116.535 89.1465 116.645 88.4862 116.645C87.9909 116.645 87.5094 116.59 87.0417 116.466C86.6565 116.356 86.2988 116.164 85.9824 115.916C85.7073 115.696 85.4872 115.407 85.3358 115.091C85.1845 114.774 85.1157 114.417 85.102 114.059C85.102 113.77 85.1432 113.495 85.2395 113.22C85.3221 112.986 85.4321 112.766 85.5559 112.559C85.6522 112.408 85.7623 112.257 85.8861 112.133L86.0512 111.954C86.0512 111.954 86.12 111.899 86.1612 111.899C86.2025 111.899 86.2438 111.885 86.2851 111.885C86.3814 111.885 86.4639 111.913 86.5327 111.982C86.6015 112.037 86.6427 112.133 86.6427 112.229C86.6427 112.339 86.6015 112.436 86.5189 112.518C86.4777 112.559 86.4226 112.601 86.3951 112.642C86.2988 112.738 86.23 112.848 86.1475 112.958C86.0512 113.11 85.9687 113.275 85.9136 113.44C85.8448 113.632 85.8036 113.853 85.8173 114.059C85.8173 114.375 85.8999 114.692 86.0649 114.953C86.23 115.201 86.4364 115.393 86.6978 115.545C86.9592 115.696 87.248 115.806 87.5507 115.861C87.8533 115.916 88.1698 115.957 88.4862 115.944C89.0502 115.944 89.6005 115.834 90.1232 115.641C90.6047 115.462 91.0587 115.201 91.4439 114.871C91.8154 114.568 92.118 114.196 92.3381 113.784C92.5445 113.399 92.6545 112.958 92.6545 112.504C92.6545 112.023 92.5032 111.569 92.2281 111.17C91.9254 110.757 91.5402 110.4 91.1 110.152C90.591 109.849 90.0269 109.643 89.4492 109.505C88.7888 109.354 88.1147 109.285 87.4406 109.299C86.8766 109.299 86.2988 109.382 85.7485 109.505C85.1432 109.643 84.5654 109.849 84.0014 110.097C83.4236 110.358 82.8733 110.688 82.3643 111.074C81.8553 111.459 81.3876 111.913 81.0024 112.422C80.6034 112.945 80.3008 113.522 80.0807 114.141C79.8468 114.816 79.7368 115.517 79.7505 116.219C79.7505 116.852 79.8606 117.471 80.0532 118.062C80.2458 118.585 80.5071 119.08 80.8648 119.52C81.2087 119.947 81.6077 120.318 82.0617 120.621C82.5157 120.924 83.0109 121.185 83.5337 121.378C84.0702 121.57 84.6205 121.722 85.1707 121.804C85.7348 121.9 86.2988 121.942 86.8766 121.928C87.6057 121.928 88.3348 121.804 89.0364 121.584C89.7105 121.378 90.3434 121.089 90.9487 120.731C91.5127 120.401 92.0355 120.016 92.5032 119.562C92.9159 119.176 93.2736 118.736 93.5762 118.269C93.6037 118.214 93.645 118.172 93.7 118.145C93.7551 118.117 93.8101 118.103 93.8789 118.103C93.9752 118.103 94.0715 118.131 94.1265 118.214C94.1815 118.282 94.2228 118.365 94.2228 118.447C94.2228 118.475 94.2228 118.516 94.2228 118.544C94.2228 118.571 94.2091 118.612 94.1815 118.64L94.1953 118.667Z" fill="#F9F5F2"/>
<path d="M95.9421 121.336C96.0384 121.116 96.1485 120.896 96.286 120.648C96.4236 120.4 96.5474 120.139 96.6988 119.878C96.8501 119.616 97.0014 119.355 97.1665 119.094C97.3316 118.832 97.5104 118.598 97.6893 118.364C97.8406 118.172 98.0194 118.007 98.2395 117.883C98.3908 117.787 98.5697 117.745 98.7623 117.732C98.9136 117.732 99.0512 117.759 99.1888 117.828C99.3126 117.897 99.4089 117.979 99.4914 118.089C99.5739 118.213 99.6427 118.337 99.6702 118.474C99.7115 118.64 99.739 118.791 99.739 118.956C99.739 119.149 99.739 119.341 99.6978 119.534C99.6702 119.781 99.6565 120.043 99.6702 120.29C99.6702 120.442 99.6702 120.593 99.6978 120.744C99.6978 120.882 99.739 121.006 99.7803 121.143C99.8216 121.253 99.8766 121.35 99.9591 121.418C100.055 121.487 100.165 121.528 100.276 121.515C100.427 121.515 100.592 121.46 100.73 121.377C100.895 121.281 101.032 121.171 101.17 121.033C101.321 120.882 101.459 120.731 101.582 120.566C101.706 120.4 101.83 120.222 101.926 120.043C102.023 119.864 102.119 119.699 102.202 119.547C102.284 119.396 102.339 119.259 102.394 119.149C102.449 119.011 102.573 118.928 102.724 118.928C102.821 118.928 102.917 118.97 102.972 119.038C103.027 119.107 103.068 119.19 103.068 119.286C103.068 119.327 103.068 119.382 103.041 119.424C103.013 119.479 102.972 119.575 102.903 119.74C102.821 119.933 102.724 120.112 102.614 120.29C102.49 120.497 102.353 120.717 102.202 120.951C102.036 121.171 101.871 121.391 101.665 121.584C101.472 121.776 101.266 121.927 101.032 122.065C100.812 122.189 100.564 122.258 100.317 122.258C100.069 122.271 99.8353 122.216 99.6152 122.079C99.4364 121.955 99.2988 121.804 99.2025 121.625C99.1062 121.432 99.0374 121.212 98.9962 120.992C98.9549 120.772 98.9411 120.538 98.9411 120.318C98.9411 120.208 98.9411 120.084 98.9411 119.96C98.9411 119.836 98.9549 119.713 98.9686 119.575C98.9824 119.437 98.9824 119.327 98.9962 119.217C99.0099 119.107 98.9962 119.011 98.9962 118.942C98.9962 118.805 98.9824 118.667 98.9136 118.543C98.8723 118.488 98.8036 118.447 98.7348 118.447C98.5972 118.461 98.4871 118.529 98.3908 118.626C98.2395 118.763 98.1157 118.915 97.9919 119.08C97.8406 119.286 97.703 119.492 97.5792 119.713C97.4416 119.946 97.3041 120.18 97.1802 120.414C97.0564 120.648 96.9326 120.868 96.8363 121.075C96.74 121.281 96.6437 121.46 96.5749 121.597C96.4924 121.804 96.3548 121.982 96.176 122.134C96.0659 122.216 95.9421 122.258 95.8183 122.271C95.6395 122.271 95.4744 122.203 95.3643 122.051C95.2543 121.886 95.1992 121.694 95.1992 121.487V120.896C95.1855 119.713 95.1717 118.585 95.158 117.511C95.1442 116.438 95.158 115.434 95.158 114.512C95.1717 113.591 95.213 112.752 95.268 112.009C95.3093 111.362 95.4056 110.729 95.5432 110.096C95.6257 109.656 95.7908 109.244 96.0384 108.872C96.2035 108.611 96.4924 108.446 96.795 108.432C97.0427 108.432 97.2765 108.501 97.4691 108.638C97.6617 108.79 97.8131 108.996 97.9094 109.216C98.0332 109.491 98.1157 109.78 98.1707 110.069C98.2258 110.413 98.2533 110.757 98.2533 111.101C98.2533 111.83 98.1983 112.559 98.0744 113.274C97.9506 113.976 97.7718 114.678 97.5654 115.365C97.3453 116.039 97.0977 116.7 96.795 117.346C96.5062 117.993 96.1897 118.626 95.8733 119.231V120.868L95.9008 121.308L95.9421 121.336ZM95.9008 117.869C96.1622 117.291 96.3961 116.727 96.6025 116.177C96.8088 115.641 96.9876 115.09 97.139 114.526C97.2903 113.976 97.4004 113.426 97.4829 112.862C97.5654 112.284 97.6067 111.692 97.593 111.114C97.593 111.018 97.593 110.853 97.5792 110.633C97.5792 110.413 97.5379 110.179 97.4829 109.959C97.4416 109.753 97.3728 109.56 97.2628 109.381C97.1802 109.23 97.0289 109.133 96.8501 109.133C96.7125 109.133 96.5887 109.23 96.4924 109.409C96.3686 109.642 96.286 109.904 96.231 110.165C96.1485 110.523 96.0934 110.894 96.0522 111.266C96.0109 111.692 95.9696 112.132 95.9421 112.6C95.9146 113.068 95.9008 113.549 95.8871 114.045C95.8733 114.54 95.8733 115.021 95.8733 115.489C95.8733 115.957 95.8733 116.397 95.8733 116.796V117.855L95.9008 117.869Z" fill="#F9F5F2"/>
<path d="M103.866 114.678C103.866 115.146 103.494 115.531 103.026 115.545C102.559 115.558 102.173 115.173 102.16 114.705C102.16 114.595 102.173 114.472 102.228 114.375C102.311 114.169 102.476 114.004 102.682 113.921C102.999 113.784 103.37 113.852 103.618 114.086C103.783 114.251 103.879 114.458 103.879 114.692L103.866 114.678ZM102.407 120.194C102.407 119.3 102.449 118.392 102.545 117.498C102.545 117.415 102.6 117.333 102.655 117.264C102.724 117.195 102.82 117.154 102.916 117.168C103.013 117.168 103.095 117.209 103.15 117.278C103.219 117.347 103.246 117.429 103.246 117.526C103.246 117.567 103.246 117.677 103.233 117.856C103.219 118.035 103.205 118.268 103.178 118.53C103.15 118.791 103.15 119.066 103.136 119.355C103.123 119.644 103.123 119.919 103.136 120.153C103.136 120.428 103.164 120.69 103.246 120.951C103.301 121.13 103.384 121.281 103.508 121.419C103.59 121.515 103.714 121.598 103.838 121.639C103.948 121.666 104.058 121.694 104.168 121.694C104.361 121.694 104.553 121.625 104.705 121.501C104.925 121.35 105.104 121.171 105.282 120.965C105.503 120.703 105.695 120.428 105.874 120.153C106.067 119.837 106.259 119.479 106.452 119.094C106.479 119.039 106.521 118.984 106.576 118.943C106.631 118.901 106.699 118.887 106.768 118.887C106.865 118.887 106.961 118.929 107.016 118.998C107.085 119.066 107.112 119.149 107.112 119.245C107.112 119.3 107.112 119.355 107.071 119.41C107.002 119.562 106.906 119.727 106.796 119.933C106.686 120.139 106.562 120.359 106.424 120.58C106.287 120.8 106.122 121.02 105.957 121.24C105.791 121.46 105.613 121.653 105.42 121.831C105.241 121.997 105.035 122.148 104.815 122.258C104.622 122.368 104.388 122.423 104.168 122.423C103.907 122.423 103.659 122.368 103.425 122.258C103.205 122.148 103.026 121.983 102.875 121.79C102.724 121.584 102.6 121.336 102.545 121.089C102.462 120.8 102.435 120.497 102.435 120.208L102.407 120.194ZM103.343 114.678C103.343 114.595 103.301 114.513 103.233 114.444C103.178 114.375 103.095 114.348 102.999 114.348C102.916 114.348 102.834 114.389 102.779 114.444C102.724 114.499 102.682 114.595 102.682 114.678C102.682 114.76 102.724 114.843 102.779 114.898C102.834 114.953 102.916 114.994 103.013 114.994C103.095 114.994 103.178 114.953 103.233 114.898C103.301 114.843 103.329 114.76 103.329 114.678H103.343Z" fill="#F9F5F2"/>
<path d="M108.529 121.143C108.626 120.937 108.736 120.703 108.873 120.455C109.011 120.208 109.135 119.96 109.286 119.699C109.437 119.437 109.589 119.19 109.754 118.942C109.919 118.695 110.084 118.461 110.263 118.227C110.414 118.034 110.593 117.869 110.813 117.745C110.978 117.649 111.143 117.608 111.336 117.594C111.625 117.567 111.9 117.704 112.065 117.938C112.23 118.199 112.313 118.502 112.313 118.818C112.313 118.901 112.313 118.997 112.313 119.107C112.313 119.217 112.299 119.355 112.285 119.479C112.271 119.603 112.271 119.74 112.258 119.878C112.244 120.015 112.258 120.139 112.258 120.263C112.258 120.4 112.258 120.552 112.285 120.689C112.299 120.813 112.326 120.937 112.381 121.047C112.423 121.143 112.491 121.226 112.574 121.295C112.67 121.35 112.78 121.377 112.89 121.377C113.152 121.377 113.386 121.267 113.578 121.088C113.812 120.896 114.018 120.676 114.197 120.428C114.376 120.18 114.541 119.919 114.679 119.644C114.816 119.382 114.926 119.162 114.981 118.997C115.036 118.86 115.16 118.777 115.312 118.777C115.408 118.777 115.504 118.818 115.573 118.887C115.642 118.956 115.669 119.039 115.669 119.135C115.669 119.176 115.669 119.231 115.642 119.272C115.614 119.327 115.573 119.424 115.49 119.589C115.408 119.754 115.325 119.933 115.201 120.125C115.078 120.318 114.94 120.552 114.775 120.772C114.624 120.992 114.445 121.212 114.239 121.405C114.046 121.597 113.84 121.749 113.606 121.886C113.386 122.01 113.138 122.079 112.89 122.079C112.656 122.079 112.409 122.038 112.202 121.927C112.024 121.817 111.886 121.68 111.79 121.501C111.68 121.322 111.611 121.116 111.583 120.923C111.542 120.703 111.528 120.483 111.528 120.277C111.528 120.18 111.528 120.07 111.528 119.96C111.528 119.85 111.542 119.713 111.556 119.589C111.57 119.465 111.583 119.327 111.583 119.19C111.583 119.052 111.583 118.928 111.583 118.818C111.583 118.681 111.556 118.53 111.487 118.406C111.446 118.351 111.391 118.309 111.322 118.296C111.184 118.309 111.074 118.378 110.978 118.474C110.827 118.612 110.703 118.763 110.579 118.928C110.442 119.121 110.304 119.327 110.153 119.561C110.001 119.795 109.878 120.029 109.74 120.263C109.616 120.497 109.492 120.717 109.396 120.923C109.3 121.13 109.203 121.308 109.148 121.446C109.066 121.652 108.942 121.831 108.777 121.983C108.667 122.065 108.529 122.12 108.392 122.12C108.227 122.12 108.075 122.065 107.952 121.955C107.842 121.831 107.773 121.666 107.787 121.487C107.787 121.446 107.787 121.363 107.8 121.226C107.814 121.088 107.828 120.937 107.842 120.772C107.855 120.607 107.869 120.4 107.897 120.194C107.924 119.988 107.924 119.781 107.952 119.575C107.979 119.369 107.979 119.176 107.993 119.011C108.007 118.846 108.007 118.695 107.993 118.571C107.993 118.419 107.993 118.268 107.965 118.117C107.965 118.021 107.938 117.938 107.883 117.855C107.828 117.869 107.731 117.993 107.594 118.213C107.388 118.585 107.195 118.956 107.057 119.355C107.03 119.424 106.975 119.479 106.92 119.52C106.865 119.561 106.796 119.575 106.727 119.575C106.631 119.575 106.535 119.548 106.48 119.465C106.425 119.396 106.383 119.314 106.383 119.217C106.383 119.176 106.383 119.121 106.411 119.08C106.603 118.557 106.865 118.048 107.181 117.594C107.333 117.333 107.608 117.154 107.91 117.113C108.034 117.113 108.172 117.14 108.282 117.223C108.392 117.291 108.474 117.388 108.529 117.512C108.598 117.635 108.639 117.773 108.667 117.897C108.694 118.048 108.708 118.186 108.708 118.337C108.708 118.447 108.708 118.626 108.694 118.86C108.681 119.094 108.667 119.355 108.639 119.63C108.612 119.905 108.598 120.18 108.584 120.442C108.571 120.703 108.543 120.937 108.529 121.116V121.143Z" fill="#F9F5F2"/>
<path d="M116.123 120.869C116.261 121.047 116.426 121.199 116.632 121.295C117.141 121.529 117.733 121.501 118.228 121.226C118.489 121.075 118.709 120.869 118.902 120.635C119.108 120.387 119.287 120.112 119.439 119.837C119.604 119.534 119.741 119.245 119.865 118.943C119.893 118.874 119.934 118.819 119.989 118.791C120.044 118.75 120.113 118.736 120.181 118.736C120.278 118.736 120.374 118.778 120.443 118.846C120.512 118.915 120.539 118.998 120.539 119.094C120.539 119.122 120.539 119.149 120.539 119.177C120.539 119.204 120.525 119.232 120.512 119.245C120.195 120.043 119.728 120.786 119.122 121.405C118.668 121.873 118.049 122.148 117.403 122.162C116.701 122.189 116.013 121.873 115.587 121.323C115.394 121.061 115.243 120.772 115.146 120.47C115.05 120.167 114.995 119.837 114.995 119.52C114.995 119.218 115.023 118.929 115.105 118.64C115.174 118.392 115.284 118.145 115.435 117.938C115.573 117.746 115.752 117.581 115.958 117.457C116.164 117.347 116.398 117.278 116.632 117.278C116.784 117.278 116.921 117.306 117.059 117.361C117.196 117.416 117.334 117.498 117.444 117.608C117.568 117.718 117.65 117.856 117.719 118.007C117.788 118.172 117.829 118.351 117.829 118.544C117.829 118.791 117.788 119.039 117.705 119.273C117.623 119.507 117.499 119.713 117.348 119.906C117.196 120.112 117.004 120.291 116.797 120.442C116.591 120.607 116.371 120.745 116.123 120.869ZM115.834 120.263C116.206 120.112 116.522 119.851 116.77 119.534C116.88 119.383 116.962 119.232 117.031 119.053C117.086 118.888 117.114 118.723 117.114 118.544C117.114 118.392 117.072 118.241 116.962 118.117C116.88 118.021 116.756 117.98 116.632 117.98C116.481 117.98 116.33 118.035 116.206 118.131C116.082 118.227 115.986 118.351 115.917 118.502C115.834 118.668 115.779 118.833 115.752 119.011C115.724 119.19 115.71 119.383 115.71 119.562C115.71 119.686 115.724 119.796 115.752 119.919C115.779 120.043 115.807 120.167 115.834 120.277V120.263Z" fill="#F9F5F2"/>
<path d="M120.911 118.378C120.87 118.474 120.828 118.598 120.773 118.708C120.718 118.818 120.663 118.97 120.594 119.107C120.553 119.204 120.498 119.286 120.429 119.355C120.374 119.41 120.278 119.451 120.196 119.437C120.099 119.437 120.003 119.41 119.948 119.341C119.893 119.286 119.852 119.204 119.852 119.107C119.852 119.08 119.852 119.052 119.852 119.025C119.852 118.984 119.879 118.956 119.893 118.915C120.03 118.653 120.154 118.378 120.251 118.089C120.333 117.842 120.388 117.594 120.429 117.346C120.388 117.223 120.361 117.099 120.333 116.975C120.319 116.879 120.306 116.769 120.306 116.672C120.306 116.493 120.333 116.315 120.429 116.163C120.512 116.04 120.65 115.957 120.787 115.971C120.925 115.971 121.062 116.04 121.131 116.15C121.214 116.287 121.269 116.452 121.269 116.604C121.269 116.7 121.269 116.81 121.241 116.906C121.227 117.003 121.2 117.126 121.172 117.278C121.31 117.594 121.447 117.91 121.612 118.213C121.764 118.488 121.888 118.736 122.011 118.97C122.122 119.176 122.218 119.396 122.3 119.603C122.465 120.043 122.452 120.524 122.259 120.951C122.149 121.198 121.97 121.405 121.736 121.556C121.764 121.556 121.805 121.556 121.833 121.556H121.929C122.273 121.556 122.617 121.46 122.906 121.295C123.208 121.13 123.483 120.909 123.704 120.648C123.951 120.387 124.158 120.084 124.336 119.781C124.515 119.479 124.68 119.162 124.818 118.832C124.873 118.681 124.969 118.612 125.079 118.612C125.176 118.612 125.272 118.64 125.327 118.722C125.382 118.791 125.423 118.873 125.423 118.97C125.423 119.025 125.423 119.066 125.396 119.107C125.327 119.272 125.244 119.465 125.134 119.685C125.024 119.919 124.887 120.139 124.749 120.359C124.598 120.593 124.419 120.827 124.226 121.033C124.034 121.253 123.8 121.46 123.566 121.625C123.318 121.804 123.043 121.941 122.754 122.051C122.438 122.161 122.121 122.216 121.791 122.216C121.392 122.216 120.993 122.148 120.622 122.01C120.264 121.872 119.948 121.611 119.742 121.295C119.7 121.24 119.687 121.185 119.687 121.116C119.687 121.02 119.728 120.923 119.797 120.868C119.92 120.731 120.154 120.717 120.292 120.854C120.306 120.882 120.333 120.896 120.361 120.909L120.498 121.006C120.498 121.006 120.622 121.075 120.691 121.088C120.76 121.116 120.842 121.13 120.911 121.13C121.048 121.13 121.172 121.102 121.282 121.033C121.379 120.978 121.461 120.896 121.53 120.799C121.585 120.717 121.64 120.607 121.668 120.511C121.695 120.428 121.709 120.332 121.709 120.249C121.709 120.084 121.681 119.933 121.626 119.781C121.571 119.616 121.502 119.465 121.434 119.314C121.351 119.162 121.269 118.997 121.172 118.832C121.076 118.667 120.993 118.502 120.911 118.323V118.378Z" fill="#F9F5F2"/>
<path d="M125.904 120.758C126.042 120.937 126.207 121.088 126.413 121.185C126.922 121.419 127.514 121.391 128.009 121.116C128.271 120.965 128.491 120.758 128.683 120.524C128.89 120.277 129.069 120.002 129.22 119.727C129.385 119.424 129.523 119.135 129.646 118.832C129.674 118.764 129.715 118.708 129.77 118.681C129.825 118.64 129.894 118.626 129.963 118.626C130.059 118.626 130.155 118.667 130.224 118.736C130.293 118.805 130.32 118.887 130.32 118.984C130.32 119.011 130.32 119.039 130.32 119.066C130.32 119.094 130.307 119.121 130.293 119.135C129.976 119.933 129.509 120.676 128.903 121.295C128.449 121.763 127.83 122.038 127.184 122.051C126.482 122.079 125.794 121.763 125.368 121.212C125.175 120.951 125.024 120.662 124.928 120.359C124.831 120.057 124.776 119.727 124.776 119.41C124.776 119.107 124.804 118.819 124.886 118.53C124.955 118.282 125.065 118.034 125.217 117.828C125.354 117.635 125.533 117.47 125.739 117.347C125.946 117.237 126.18 117.168 126.413 117.168C126.565 117.168 126.702 117.195 126.84 117.25C126.977 117.305 127.115 117.388 127.225 117.498C127.335 117.608 127.431 117.746 127.5 117.897C127.569 118.062 127.61 118.241 127.61 118.433C127.61 118.681 127.569 118.929 127.486 119.162C127.404 119.396 127.28 119.603 127.129 119.795C126.977 120.002 126.785 120.18 126.579 120.332C126.372 120.497 126.152 120.634 125.904 120.758ZM125.616 120.153C125.987 120.002 126.303 119.74 126.551 119.424C126.661 119.273 126.744 119.121 126.812 118.942C126.867 118.777 126.895 118.612 126.895 118.433C126.895 118.282 126.854 118.131 126.744 118.007C126.661 117.911 126.537 117.869 126.413 117.869C126.262 117.869 126.111 117.924 125.987 118.021C125.863 118.117 125.767 118.241 125.698 118.392C125.616 118.557 125.561 118.722 125.533 118.901C125.505 119.08 125.492 119.273 125.492 119.451C125.492 119.575 125.505 119.685 125.533 119.809C125.561 119.933 125.588 120.057 125.616 120.167V120.153Z" fill="#F9F5F2"/>
<path d="M149.236 118.034C148.906 118.557 148.521 119.039 148.067 119.465C147.544 119.947 146.98 120.387 146.375 120.745C145.715 121.13 145.013 121.446 144.284 121.666C143.527 121.9 142.729 122.024 141.945 122.038C141.312 122.038 140.679 121.996 140.047 121.886C139.428 121.79 138.822 121.611 138.231 121.391C137.653 121.171 137.116 120.882 136.607 120.538C136.112 120.194 135.672 119.768 135.301 119.3C134.915 118.805 134.613 118.255 134.42 117.663C134.2 117.003 134.076 116.315 134.076 115.627C134.076 114.925 134.159 114.21 134.379 113.536C134.585 112.889 134.888 112.27 135.259 111.692C135.644 111.128 136.098 110.606 136.621 110.165C137.144 109.711 137.736 109.313 138.355 108.996C138.987 108.666 139.661 108.418 140.349 108.24C141.051 108.061 141.766 107.964 142.495 107.964C143.266 107.964 144.036 108.033 144.779 108.226C145.439 108.391 146.072 108.652 146.65 109.01C147.159 109.326 147.599 109.739 147.929 110.248C148.246 110.73 148.411 111.294 148.411 111.858C148.411 112.408 148.287 112.944 148.039 113.44C147.778 113.949 147.434 114.389 146.994 114.76C146.526 115.145 146.003 115.462 145.439 115.668C144.834 115.902 144.188 116.012 143.527 116.012C143.032 116.012 142.55 115.957 142.083 115.833C141.698 115.723 141.34 115.531 141.023 115.283C140.748 115.063 140.528 114.774 140.377 114.458C140.226 114.141 140.157 113.784 140.143 113.426C140.143 113.137 140.184 112.862 140.281 112.587C140.363 112.353 140.473 112.133 140.597 111.926C140.693 111.775 140.803 111.624 140.927 111.5L141.092 111.321C141.092 111.321 141.161 111.266 141.202 111.266C141.244 111.266 141.285 111.252 141.326 111.252C141.422 111.252 141.505 111.28 141.574 111.349C141.642 111.404 141.684 111.5 141.684 111.596C141.684 111.706 141.642 111.803 141.56 111.885C141.519 111.926 141.464 111.968 141.436 112.009C141.34 112.105 141.271 112.215 141.189 112.325C141.092 112.477 141.01 112.642 140.955 112.807C140.886 112.999 140.845 113.22 140.858 113.426C140.858 113.742 140.941 114.059 141.106 114.32C141.271 114.568 141.491 114.76 141.739 114.912C142 115.063 142.289 115.173 142.592 115.228C142.894 115.283 143.211 115.324 143.527 115.311C144.091 115.311 144.641 115.201 145.164 115.008C145.646 114.829 146.1 114.568 146.485 114.238C146.856 113.935 147.159 113.563 147.379 113.151C147.585 112.766 147.696 112.325 147.696 111.885C147.696 111.404 147.544 110.95 147.269 110.551C146.966 110.138 146.581 109.78 146.141 109.533C145.632 109.23 145.068 109.024 144.49 108.886C143.83 108.735 143.156 108.666 142.482 108.68C141.918 108.68 141.34 108.762 140.79 108.886C140.184 109.024 139.606 109.23 139.042 109.478C138.465 109.739 137.914 110.069 137.405 110.454C136.896 110.84 136.429 111.294 136.043 111.803C135.644 112.325 135.342 112.903 135.122 113.522C134.888 114.196 134.778 114.898 134.792 115.599C134.792 116.232 134.888 116.851 135.094 117.443C135.287 117.966 135.548 118.461 135.906 118.901C136.25 119.328 136.649 119.699 137.103 120.002C137.557 120.304 138.052 120.566 138.575 120.758C139.111 120.951 139.661 121.102 140.212 121.185C140.776 121.281 141.34 121.322 141.918 121.309C142.647 121.309 143.376 121.185 144.077 120.965C144.752 120.758 145.384 120.469 145.99 120.112C146.554 119.782 147.076 119.396 147.544 118.942C147.957 118.557 148.315 118.117 148.617 117.649C148.645 117.594 148.686 117.553 148.741 117.525C148.796 117.498 148.851 117.484 148.92 117.484C149.016 117.484 149.113 117.512 149.168 117.594C149.223 117.663 149.264 117.746 149.264 117.828C149.264 117.856 149.264 117.897 149.264 117.924C149.264 117.952 149.25 117.993 149.223 118.021L149.236 118.034Z" fill="#F9F5F2"/>
<path d="M153.349 120.414C153.157 120.744 152.895 121.033 152.593 121.267C152.345 121.459 152.042 121.57 151.726 121.583C151.506 121.583 151.286 121.542 151.093 121.459C150.901 121.377 150.735 121.253 150.598 121.088C150.447 120.923 150.336 120.73 150.281 120.51C150.199 120.263 150.171 120.015 150.171 119.754C150.171 119.368 150.199 118.969 150.281 118.584C150.35 118.295 150.433 118.006 150.557 117.731C150.667 117.484 150.804 117.25 150.956 117.03C150.983 116.988 151.024 116.961 151.066 116.947C151.107 116.933 151.162 116.92 151.217 116.92C151.313 116.92 151.41 116.961 151.465 117.03C151.533 117.099 151.561 117.181 151.561 117.277C151.561 117.319 151.561 117.36 151.533 117.387C151.52 117.429 151.506 117.47 151.478 117.497C151.451 117.552 151.396 117.635 151.327 117.759C151.244 117.91 151.176 118.062 151.121 118.213C151.038 118.433 150.969 118.653 150.928 118.873C150.873 119.162 150.845 119.451 150.859 119.74C150.845 120.043 150.928 120.331 151.093 120.579C151.244 120.772 151.478 120.868 151.726 120.854C151.863 120.854 152.001 120.813 152.111 120.744C152.276 120.662 152.414 120.538 152.538 120.4C152.689 120.235 152.813 120.029 152.895 119.822C153.005 119.561 153.074 119.286 153.088 118.997L153.212 117.387C153.212 117.291 153.267 117.209 153.335 117.154C153.404 117.099 153.487 117.057 153.583 117.057C153.679 117.057 153.776 117.099 153.831 117.167C153.9 117.236 153.927 117.332 153.927 117.429L153.817 118.983C153.817 119.162 153.817 119.327 153.831 119.506C153.858 119.726 153.9 119.932 153.968 120.139C154.037 120.331 154.147 120.51 154.285 120.662C154.422 120.813 154.629 120.882 154.835 120.882C155 120.882 155.165 120.827 155.316 120.744C155.482 120.648 155.633 120.538 155.77 120.4C155.922 120.263 156.046 120.098 156.169 119.932C156.293 119.767 156.403 119.589 156.5 119.41C156.596 119.231 156.692 119.066 156.761 118.901C156.83 118.736 156.899 118.598 156.94 118.488C156.967 118.419 157.009 118.364 157.064 118.323C157.119 118.282 157.187 118.268 157.256 118.268C157.353 118.268 157.449 118.295 157.518 118.378C157.573 118.447 157.614 118.529 157.614 118.626C157.614 118.681 157.614 118.722 157.586 118.763C157.559 118.818 157.518 118.914 157.449 119.08C157.38 119.245 157.284 119.423 157.174 119.63C157.05 119.85 156.912 120.07 156.761 120.276C156.596 120.496 156.417 120.717 156.224 120.909C156.032 121.102 155.812 121.253 155.578 121.391C155.344 121.514 155.083 121.583 154.821 121.583C154.491 121.597 154.161 121.487 153.9 121.281C153.638 121.047 153.446 120.73 153.349 120.4V120.414Z" fill="#F9F5F2"/>
<path d="M158.412 114.045C158.412 114.513 158.04 114.898 157.573 114.912C157.105 114.925 156.72 114.54 156.706 114.073C156.706 113.963 156.72 113.839 156.775 113.742C156.857 113.536 157.022 113.371 157.229 113.288C157.545 113.151 157.917 113.22 158.164 113.453C158.329 113.619 158.426 113.825 158.426 114.059L158.412 114.045ZM156.954 119.562C156.954 118.667 156.995 117.759 157.091 116.865C157.091 116.783 157.146 116.7 157.201 116.631C157.27 116.563 157.366 116.521 157.463 116.535C157.559 116.535 157.642 116.576 157.697 116.645C157.765 116.714 157.793 116.796 157.793 116.893C157.793 116.934 157.793 117.044 157.779 117.223C157.765 117.402 157.752 117.636 157.724 117.897C157.697 118.158 157.697 118.434 157.683 118.722C157.669 119.011 157.669 119.286 157.683 119.52C157.683 119.795 157.71 120.057 157.793 120.318C157.848 120.497 157.93 120.648 158.054 120.786C158.137 120.882 158.261 120.965 158.384 121.006C158.494 121.034 158.605 121.061 158.715 121.061C158.907 121.061 159.1 120.992 159.251 120.868C159.457 120.717 159.65 120.538 159.829 120.332C160.049 120.071 160.242 119.795 160.42 119.52C160.627 119.176 160.819 118.819 160.998 118.461C161.026 118.406 161.067 118.351 161.122 118.31C161.177 118.268 161.246 118.255 161.315 118.255C161.411 118.255 161.507 118.296 161.562 118.365C161.631 118.434 161.659 118.516 161.659 118.612C161.659 118.667 161.659 118.722 161.617 118.777C161.548 118.929 161.452 119.094 161.342 119.3C161.232 119.507 161.108 119.727 160.971 119.947C160.833 120.167 160.668 120.387 160.503 120.607C160.338 120.827 160.159 121.02 159.953 121.199C159.774 121.364 159.568 121.515 159.347 121.625C159.155 121.735 158.921 121.79 158.701 121.79C158.439 121.79 158.192 121.735 157.958 121.625C157.738 121.515 157.559 121.35 157.408 121.157C157.256 120.951 157.133 120.703 157.077 120.456C156.995 120.167 156.967 119.864 156.967 119.575L156.954 119.562ZM157.889 114.059C157.889 113.976 157.848 113.894 157.793 113.825C157.738 113.756 157.655 113.729 157.559 113.729C157.476 113.729 157.394 113.77 157.339 113.825C157.284 113.88 157.243 113.976 157.243 114.059C157.243 114.141 157.284 114.224 157.339 114.279C157.394 114.334 157.476 114.375 157.573 114.375C157.655 114.375 157.738 114.334 157.793 114.279C157.862 114.224 157.889 114.141 157.889 114.059Z" fill="#F9F5F2"/>
<path d="M162.002 117.897C161.961 117.993 161.92 118.117 161.865 118.227C161.81 118.337 161.755 118.488 161.686 118.626C161.645 118.722 161.589 118.804 161.521 118.873C161.466 118.928 161.369 118.97 161.287 118.956C161.191 118.956 161.094 118.928 161.039 118.859C160.984 118.804 160.943 118.722 160.943 118.626C160.943 118.598 160.943 118.571 160.943 118.543C160.943 118.502 160.97 118.474 160.984 118.433C161.122 118.172 161.246 117.897 161.342 117.608C161.424 117.36 161.479 117.112 161.521 116.865C161.479 116.741 161.452 116.617 161.424 116.493C161.411 116.397 161.397 116.287 161.397 116.191C161.397 116.012 161.424 115.833 161.521 115.682C161.603 115.558 161.741 115.475 161.878 115.489C162.016 115.489 162.154 115.558 162.222 115.668C162.305 115.805 162.36 115.971 162.36 116.122C162.36 116.218 162.36 116.328 162.332 116.425C162.319 116.521 162.291 116.645 162.264 116.796C162.401 117.112 162.539 117.429 162.704 117.731C162.855 118.007 162.979 118.254 163.103 118.488C163.213 118.694 163.309 118.915 163.392 119.121C163.46 119.313 163.502 119.52 163.502 119.726C163.502 119.988 163.46 120.249 163.35 120.483C163.24 120.73 163.061 120.937 162.828 121.088C162.855 121.088 162.896 121.088 162.924 121.088H163.02C163.364 121.088 163.708 120.992 163.997 120.827C164.3 120.662 164.575 120.442 164.795 120.18C165.042 119.919 165.249 119.616 165.428 119.313C165.607 119.011 165.772 118.694 165.909 118.364C165.964 118.213 166.06 118.144 166.171 118.144C166.267 118.144 166.363 118.172 166.418 118.254C166.473 118.323 166.514 118.406 166.514 118.502C166.514 118.557 166.514 118.598 166.487 118.639C166.418 118.804 166.336 118.997 166.226 119.217C166.116 119.451 165.978 119.671 165.84 119.891C165.689 120.125 165.51 120.359 165.318 120.565C165.125 120.785 164.891 120.992 164.657 121.157C164.41 121.336 164.135 121.473 163.846 121.583C163.529 121.693 163.213 121.748 162.883 121.748C162.484 121.748 162.085 121.68 161.713 121.542C161.356 121.405 161.039 121.143 160.833 120.827C160.792 120.772 160.778 120.717 160.778 120.648C160.778 120.552 160.819 120.455 160.888 120.4C161.012 120.263 161.246 120.249 161.383 120.387C161.397 120.414 161.424 120.428 161.452 120.442L161.589 120.538C161.589 120.538 161.713 120.607 161.782 120.62C161.851 120.648 161.933 120.662 162.002 120.662C162.14 120.662 162.264 120.634 162.374 120.565C162.47 120.51 162.552 120.428 162.621 120.331C162.676 120.249 162.731 120.139 162.759 120.043C162.786 119.96 162.8 119.864 162.8 119.781C162.8 119.616 162.773 119.465 162.718 119.313C162.663 119.148 162.594 118.997 162.525 118.846C162.442 118.694 162.36 118.529 162.264 118.364C162.167 118.199 162.085 118.034 162.002 117.855V117.897Z" fill="#F9F5F2"/>
<path d="M167.326 113.949C167.326 114.417 166.955 114.802 166.487 114.816C166.02 114.829 165.634 114.444 165.621 113.976C165.621 113.866 165.634 113.743 165.689 113.646C165.772 113.44 165.937 113.275 166.143 113.192C166.46 113.055 166.831 113.123 167.079 113.357C167.161 113.44 167.216 113.522 167.258 113.632C167.299 113.742 167.326 113.853 167.326 113.963V113.949ZM165.868 119.465C165.868 118.571 165.909 117.663 166.006 116.769C166.006 116.686 166.061 116.604 166.116 116.535C166.185 116.466 166.281 116.425 166.377 116.439C166.474 116.439 166.556 116.48 166.611 116.549C166.68 116.618 166.707 116.7 166.707 116.797C166.707 116.838 166.707 116.948 166.694 117.127C166.68 117.306 166.666 117.539 166.639 117.801C166.611 118.062 166.611 118.337 166.597 118.626C166.584 118.915 166.584 119.19 166.597 119.424C166.597 119.699 166.625 119.961 166.707 120.222C166.762 120.401 166.845 120.552 166.969 120.69C167.051 120.786 167.175 120.869 167.299 120.91C167.409 120.937 167.519 120.965 167.629 120.965C167.822 120.965 168.014 120.896 168.166 120.772C168.372 120.621 168.565 120.442 168.743 120.236C168.964 119.974 169.156 119.699 169.335 119.424C169.528 119.108 169.72 118.75 169.913 118.365C169.94 118.31 169.982 118.255 170.037 118.214C170.092 118.172 170.16 118.158 170.229 118.158C170.325 118.158 170.422 118.2 170.477 118.269C170.546 118.337 170.573 118.42 170.573 118.516C170.573 118.571 170.573 118.626 170.532 118.681C170.463 118.833 170.367 118.998 170.257 119.204C170.147 119.41 170.023 119.63 169.885 119.851C169.748 120.071 169.583 120.291 169.418 120.511C169.252 120.731 169.074 120.924 168.881 121.102C168.702 121.268 168.496 121.419 168.276 121.529C168.069 121.639 167.849 121.694 167.629 121.694C167.368 121.694 167.12 121.639 166.886 121.529C166.666 121.419 166.487 121.254 166.336 121.061C166.185 120.855 166.061 120.607 166.006 120.36C165.923 120.071 165.896 119.768 165.896 119.479L165.868 119.465ZM166.804 113.949C166.804 113.866 166.762 113.784 166.694 113.715C166.639 113.646 166.556 113.619 166.46 113.619C166.377 113.619 166.295 113.66 166.24 113.715C166.185 113.77 166.143 113.866 166.143 113.949C166.143 114.031 166.185 114.114 166.24 114.169C166.295 114.224 166.377 114.265 166.474 114.265C166.556 114.265 166.639 114.224 166.694 114.169C166.762 114.114 166.79 114.031 166.79 113.949H166.804Z" fill="#F9F5F2"/>
<path d="M171.99 120.414C172.087 120.208 172.197 119.974 172.334 119.726C172.472 119.479 172.596 119.231 172.747 118.97C172.898 118.708 173.05 118.461 173.215 118.213C173.38 117.965 173.545 117.718 173.724 117.498C173.875 117.305 174.054 117.14 174.274 117.016C174.439 116.92 174.604 116.879 174.797 116.865C175.086 116.837 175.361 116.975 175.526 117.209C175.691 117.47 175.773 117.773 175.773 118.089C175.773 118.172 175.773 118.268 175.773 118.378C175.773 118.502 175.76 118.626 175.746 118.75C175.732 118.873 175.732 119.011 175.718 119.149C175.705 119.286 175.718 119.41 175.718 119.534C175.718 119.671 175.718 119.823 175.746 119.96C175.76 120.084 175.787 120.208 175.842 120.318C175.884 120.414 175.952 120.497 176.035 120.565C176.131 120.621 176.241 120.648 176.351 120.648C176.613 120.648 176.847 120.538 177.039 120.359C177.273 120.167 177.479 119.946 177.658 119.699C177.837 119.451 178.002 119.19 178.14 118.915C178.277 118.653 178.387 118.433 178.442 118.268C178.497 118.131 178.621 118.048 178.772 118.048C178.869 118.048 178.965 118.089 179.034 118.158C179.103 118.227 179.13 118.309 179.13 118.406C179.13 118.447 179.13 118.502 179.103 118.543C179.075 118.598 179.034 118.695 178.951 118.86C178.869 119.025 178.786 119.204 178.662 119.396C178.539 119.589 178.401 119.823 178.236 120.043C178.085 120.263 177.906 120.483 177.699 120.676C177.507 120.868 177.3 121.019 177.067 121.157C176.847 121.281 176.599 121.35 176.351 121.35C176.117 121.35 175.884 121.308 175.677 121.198C175.498 121.088 175.361 120.951 175.264 120.772C175.154 120.593 175.086 120.387 175.058 120.194C175.017 119.974 175.003 119.754 174.989 119.534C174.989 119.437 174.989 119.327 174.989 119.217C174.989 119.107 175.003 118.97 175.017 118.846C175.031 118.722 175.044 118.584 175.044 118.447C175.044 118.309 175.044 118.186 175.044 118.075C175.044 117.938 175.017 117.787 174.948 117.663C174.907 117.608 174.852 117.566 174.783 117.553C174.645 117.566 174.535 117.635 174.439 117.732C174.288 117.869 174.164 118.02 174.04 118.186C173.903 118.378 173.765 118.584 173.614 118.818C173.476 119.052 173.339 119.286 173.201 119.52C173.077 119.754 172.953 119.974 172.857 120.18C172.761 120.387 172.664 120.565 172.609 120.703C172.527 120.909 172.403 121.088 172.238 121.24C172.128 121.322 171.99 121.377 171.853 121.377C171.688 121.377 171.536 121.322 171.413 121.212C171.302 121.088 171.234 120.923 171.247 120.744C171.247 120.703 171.247 120.621 171.261 120.483C171.275 120.345 171.289 120.194 171.302 120.029C171.316 119.864 171.33 119.658 171.357 119.451C171.385 119.245 171.385 119.038 171.413 118.832C171.44 118.626 171.44 118.433 171.454 118.268C171.468 118.103 171.468 117.952 171.454 117.828C171.454 117.677 171.454 117.525 171.426 117.374C171.426 117.278 171.399 117.195 171.344 117.113C171.289 117.126 171.192 117.25 171.055 117.47C170.848 117.842 170.656 118.213 170.518 118.612C170.491 118.681 170.436 118.736 170.381 118.777C170.326 118.818 170.257 118.832 170.188 118.832C170.092 118.832 169.996 118.805 169.941 118.722C169.886 118.653 169.844 118.571 169.844 118.474C169.844 118.433 169.844 118.378 169.872 118.337C170.064 117.814 170.326 117.305 170.642 116.851C170.793 116.59 171.069 116.411 171.371 116.37C171.495 116.37 171.633 116.397 171.743 116.48C171.853 116.548 171.935 116.645 171.99 116.769C172.059 116.892 172.1 117.03 172.128 117.154C172.155 117.305 172.169 117.443 172.169 117.594C172.169 117.704 172.169 117.883 172.155 118.117C172.142 118.351 172.128 118.612 172.1 118.887C172.073 119.162 172.059 119.437 172.045 119.699C172.032 119.96 172.004 120.194 171.99 120.387V120.414Z" fill="#F9F5F2"/>
<path d="M179.584 120.14C179.722 120.318 179.887 120.47 180.093 120.566C180.602 120.8 181.194 120.772 181.689 120.497C181.95 120.346 182.17 120.14 182.363 119.906C182.569 119.658 182.748 119.383 182.9 119.108C183.065 118.805 183.202 118.516 183.326 118.214C183.354 118.145 183.395 118.09 183.45 118.062C183.505 118.021 183.574 118.007 183.642 118.007C183.739 118.007 183.835 118.049 183.904 118.117C183.973 118.186 184 118.269 184 118.365C184 118.393 184 118.42 184 118.448C184 118.475 183.986 118.503 183.973 118.516C183.656 119.314 183.188 120.057 182.583 120.676C182.129 121.144 181.51 121.419 180.864 121.433C180.162 121.46 179.474 121.144 179.048 120.594C178.855 120.332 178.704 120.043 178.607 119.741C178.511 119.438 178.456 119.108 178.456 118.791C178.456 118.489 178.484 118.2 178.566 117.911C178.635 117.663 178.745 117.416 178.896 117.209C179.034 117.017 179.213 116.852 179.419 116.728C179.625 116.618 179.859 116.549 180.093 116.549C180.244 116.549 180.382 116.577 180.52 116.632C180.657 116.687 180.795 116.769 180.905 116.879C181.029 116.989 181.111 117.127 181.18 117.278C181.249 117.443 181.29 117.622 181.29 117.815C181.29 118.062 181.249 118.31 181.166 118.544C181.084 118.778 180.96 118.984 180.808 119.177C180.657 119.383 180.465 119.562 180.258 119.713C180.052 119.878 179.832 120.016 179.584 120.14ZM179.295 119.534C179.667 119.383 179.983 119.122 180.231 118.805C180.341 118.654 180.423 118.503 180.492 118.324C180.547 118.159 180.575 117.994 180.575 117.815C180.575 117.663 180.533 117.512 180.423 117.388C180.341 117.292 180.217 117.251 180.093 117.251C179.942 117.251 179.79 117.306 179.667 117.402C179.543 117.498 179.447 117.622 179.378 117.773C179.295 117.939 179.24 118.104 179.213 118.282C179.185 118.461 179.171 118.654 179.171 118.833C179.171 118.957 179.185 119.067 179.213 119.19C179.24 119.314 179.268 119.438 179.295 119.548V119.534Z" fill="#F9F5F2"/>
<path d="M117.183 43.9947C117.155 43.8709 117.196 43.7471 117.293 43.6508C121.516 38.9321 123.552 32.6315 122.906 26.3308C120.828 26.5096 110.249 27.5414 105.709 30.788C105.586 30.8843 105.42 30.8843 105.297 30.8018C105.173 30.7192 105.09 30.5817 105.118 30.4303C105.187 29.2197 104.966 28.0091 104.471 26.8948C103.343 27.8303 99.7664 31.187 95.4742 39.166C95.3779 39.3448 95.144 39.4136 94.9652 39.3173C94.8414 39.2485 94.7588 39.111 94.7588 38.9734C94.7588 38.712 95.089 32.4664 101.899 25.5329C107.663 19.6587 106.15 14.1834 105.654 12.8352C104.719 13.1516 102.05 14.1559 101.004 15.6691C100.881 15.848 100.647 15.8893 100.482 15.7654C100.385 15.6967 100.317 15.5729 100.317 15.449C100.317 15.3527 100.207 5.51653 91.8148 0C83.4231 5.51653 83.3131 15.3527 83.3131 15.449C83.3131 15.6141 83.203 15.7654 83.0517 15.8067C82.8866 15.8617 82.7215 15.8067 82.6252 15.6554C81.5797 14.1421 78.9108 13.1379 77.9754 12.8215C77.4664 14.1696 75.9669 19.6587 81.731 25.5191C88.5407 32.4526 88.8571 38.6983 88.8709 38.9596C88.8709 39.166 88.7195 39.3448 88.5132 39.3586C88.3619 39.3586 88.238 39.2898 88.1693 39.1522C83.8771 31.1732 80.3003 27.8165 79.1722 26.8811C78.677 27.9954 78.4569 29.206 78.5257 30.4166C78.5394 30.5679 78.4706 30.7192 78.3468 30.788C78.223 30.8706 78.0579 30.8568 77.9341 30.7743C73.3806 27.5276 62.8152 26.4821 60.7379 26.317C60.0776 32.6177 62.1136 38.9184 66.3508 43.637C66.4471 43.7195 66.4746 43.8571 66.4608 43.9809C66.4333 44.1047 66.3508 44.2148 66.227 44.2561C64.92 44.8476 63.6957 45.6042 62.5814 46.5122C63.9571 47.7366 69.9964 52.579 80.5204 53.0192C88.582 53.3632 90.2053 62.1126 90.4529 63.9973H93.2318C93.4794 62.1263 95.1028 53.3632 103.164 53.0192C113.688 52.579 119.728 47.7366 121.103 46.5122C119.989 45.6042 118.765 44.8476 117.458 44.2561C117.334 44.201 117.251 44.1047 117.224 43.9809L117.183 43.9947Z" fill="#C92027"/>
</svg>
