<svg width="23" height="23" viewBox="0 0 23 23" fill="none" xmlns="http://www.w3.org/2000/svg">
<g clip-path="url(#clip0_40_15)">
<path d="M5.76342 7.67254C5.87293 6.80647 6.99849 5.62938 7.89176 5.76L7.89033 5.75857C8.75966 5.92377 9.44782 7.42 9.83586 8.09279C10.1108 8.58094 9.93226 9.07551 9.67581 9.28421C9.32986 9.56305 8.78887 9.94779 8.90237 10.3341C9.10417 11.0208 11.5 13.4167 12.6784 14.0978C13.1244 14.3555 13.4478 13.6756 13.724 13.3273C13.9247 13.0593 14.4197 12.8992 14.9067 13.1637C15.6341 13.5873 16.3193 14.0795 16.9529 14.6338C17.2694 14.8983 17.3436 15.2892 17.1244 15.7023C16.7382 16.43 15.6211 17.3895 14.8103 17.1945C13.3941 16.854 7.66667 14.6338 5.82698 8.20143C5.72352 7.89713 5.74957 7.78209 5.76342 7.67254Z" fill="white"/>
<path fill-rule="evenodd" clip-rule="evenodd" d="M11.5002 22.0418C10.3275 22.0418 9.67875 21.916 8.62516 21.5627L6.60732 22.5716C5.33292 23.2088 3.8335 22.2821 3.8335 20.8572V18.6877C1.76977 16.7633 0.958496 14.5445 0.958496 11.5002C0.958496 5.67816 5.67816 0.958496 11.5002 0.958496C17.3221 0.958496 22.0418 5.67816 22.0418 11.5002C22.0418 17.3221 17.3221 22.0418 11.5002 22.0418ZM5.75016 17.8542L5.14061 17.2858C3.53725 15.7908 2.87516 14.1194 2.87516 11.5002C2.87516 6.73671 6.73671 2.87516 11.5002 2.87516C16.2637 2.87516 20.1252 6.73671 20.1252 11.5002C20.1252 16.2637 16.2637 20.1252 11.5002 20.1252C10.5555 20.1252 10.1125 20.0399 9.23461 19.7455L8.47995 19.4924L5.75016 20.8572V17.8542Z" fill="white"/>
</g>
<defs>
<clipPath id="clip0_40_15">
<rect width="23" height="23" fill="white"/>
</clipPath>
</defs>
</svg>
