<svg width="24" height="25" viewBox="0 0 24 25" fill="none" xmlns="http://www.w3.org/2000/svg">
<path fill-rule="evenodd" clip-rule="evenodd" d="M20 1.77734C21.6569 1.77734 23 3.12049 23 4.77734V20.7773C23 22.4342 21.6569 23.7773 20 23.7773H4C2.34315 23.7773 1 22.4342 1 20.7773V4.77734C1 3.12049 2.34315 1.77734 4 1.77734H20ZM20 3.77734C20.5523 3.77734 21 4.22506 21 4.77734V20.7773C21 21.3296 20.5523 21.7773 20 21.7773H15V14.7772H17.0762C17.5066 14.7772 17.8887 14.5018 18.0249 14.0934L18.4679 12.7644C18.6298 12.2787 18.2683 11.7772 17.7564 11.7772H15V9.77726C15 9.27726 15.5 8.77726 16 8.77726H18C18.5523 8.77726 19 8.32954 19 7.77726V7.09127C19 6.76825 18.7937 6.47864 18.4813 6.39621C17.1705 6.05029 16 6.05029 16 6.05029C13.5 6.05029 12 7.77726 12 9.27726V11.7772H10C9.44772 11.7772 9 12.2249 9 12.7772V13.7772C9 14.3295 9.44771 14.7772 10 14.7772H12V21.7773H4C3.44772 21.7773 3 21.3296 3 20.7773V4.77734C3 4.22506 3.44772 3.77734 4 3.77734H20Z" fill="white"/>
</svg>
